<?xml version="1.0" standalone="no"?>
<!DOCTYPE svg PUBLIC "-//W3C//DTD SVG 20010904//EN"
 "http://www.w3.org/TR/2001/REC-SVG-20010904/DTD/svg10.dtd">
<svg version="1.0" xmlns="http://www.w3.org/2000/svg"
 width="908.000000pt" height="980.000000pt" viewBox="0 0 908.000000 980.000000"
 preserveAspectRatio="xMidYMid meet">
<g transform="translate(0.000000,980.000000) scale(0.100000,-0.100000)"
fill="#ffffff" stroke="none">
<path d="M3785 9790 c-247 -33 -533 -143 -755 -291 -115 -77 -286 -240 -362
-346 -110 -153 -184 -319 -208 -467 -15 -98 -13 -355 4 -452 16 -93 71 -240
126 -334 121 -208 279 -362 545 -530 125 -79 155 -109 155 -155 0 -128 -224
-342 -585 -560 -44 -27 -159 -91 -255 -143 l-175 -94 135 6 c382 15 794 143
1080 336 87 59 260 196 390 310 l65 57 140 7 c328 17 520 62 781 186 498 235
804 670 804 1146 0 334 -156 663 -429 906 -204 182 -546 348 -806 393 -193 32
-500 44 -650 25z"/>
<path d="M6100 9044 c-56 -10 -100 -25 -100 -35 0 -6 13 -63 30 -127 41 -161
50 -232 50 -412 0 -193 -18 -318 -69 -470 -92 -276 -242 -503 -485 -738 l-96
-93 122 -59 c233 -112 415 -159 710 -184 195 -16 228 -26 313 -92 182 -141
275 -206 348 -242 183 -90 443 -160 632 -169 128 -6 129 -7 -30 76 -191 101
-319 198 -412 310 -64 78 -82 126 -63 171 18 44 62 78 188 148 316 177 498
389 564 660 26 110 29 303 4 405 -17 74 -75 196 -134 286 -58 89 -206 232
-312 301 -199 130 -461 230 -655 250 -114 12 -561 22 -605 14z"/>
<path d="M1844 5640 c-314 -28 -632 -184 -875 -430 -258 -261 -401 -606 -401
-970 -1 -203 39 -363 144 -577 64 -133 111 -195 271 -362 73 -75 143 -151 155
-168 l22 -31 -82 -58 c-499 -347 -840 -871 -998 -1528 -63 -260 -89 -610 -71
-928 10 -166 33 -353 45 -366 3 -2 81 -20 173 -39 1010 -203 2067 -237 3033
-97 306 44 704 121 738 143 39 24 71 485 53 774 -7 100 -19 232 -27 292 -44
308 -187 723 -336 975 -111 189 -305 439 -425 550 -59 54 -191 157 -331 257
l-43 31 143 149 c177 184 262 296 333 438 118 237 152 534 94 827 -93 471
-468 884 -961 1057 -150 52 -444 80 -654 61z"/>
<path d="M7245 5639 c-211 -31 -476 -169 -647 -339 -187 -187 -292 -409 -319
-675 -20 -195 8 -367 87 -534 58 -123 116 -203 244 -336 163 -171 158 -141 43
-225 -119 -88 -311 -280 -414 -416 -280 -365 -441 -907 -426 -1429 4 -150 30
-401 42 -413 6 -6 426 -80 570 -101 412 -59 682 -75 1148 -68 432 6 670 27
1059 92 329 56 402 77 418 121 6 15 15 125 21 245 18 393 -10 653 -101 931
-150 456 -404 818 -730 1038 -113 77 -115 56 17 194 245 255 322 398 354 656
67 545 -253 1035 -791 1214 -153 51 -401 70 -575 45z"/>
</g>
</svg>
