<?xml version="1.0" standalone="no"?>
<!DOCTYPE svg PUBLIC "-//W3C//DTD SVG 20010904//EN"
 "http://www.w3.org/TR/2001/REC-SVG-20010904/DTD/svg10.dtd">
<svg version="1.0" xmlns="http://www.w3.org/2000/svg"
 width="980.000000pt" height="942.000000pt" viewBox="0 0 980.000000 942.000000"
 preserveAspectRatio="xMidYMid meet">
<g transform="translate(0.000000,942.000000) scale(0.100000,-0.100000)"
fill="#ffffff" stroke="none">
<path d="M1986 9410 c-40 -12 -85 -57 -107 -106 -42 -92 -49 -540 -13 -814
129 -997 621 -1811 1388 -2297 129 -82 429 -229 571 -281 124 -45 383 -112
525 -136 270 -45 643 -71 805 -56 59 6 109 9 111 7 8 -8 127 -273 164 -367
127 -320 270 -817 314 -1095 9 -55 25 -153 35 -218 24 -147 50 -202 110 -236
82 -45 193 -24 255 49 28 34 29 37 46 145 23 142 118 316 265 485 184 212 529
530 692 637 l54 37 170 7 c414 20 664 78 954 222 153 76 251 138 358 227 352
295 613 771 673 1230 21 163 25 568 6 622 -17 47 -93 115 -139 124 -78 15
-467 -39 -689 -95 -694 -175 -1202 -580 -1440 -1148 -89 -213 -127 -397 -139
-678 -4 -77 -8 -149 -10 -161 -3 -12 -85 -87 -197 -180 -115 -94 -290 -254
-434 -396 l-240 -237 -44 152 c-101 354 -249 746 -369 977 l-75 145 -2 260
c-1 295 -19 461 -79 741 -135 625 -429 1119 -920 1543 -593 512 -1444 833
-2360 891 -184 11 -200 11 -239 0z m512 -435 c1025 -149 1821 -591 2263 -1258
203 -306 324 -635 385 -1042 17 -115 31 -555 18 -555 -73 1 -464 23 -539 31
-741 79 -1319 387 -1770 944 -304 376 -487 816 -571 1370 -17 118 -44 407 -44
484 l0 54 76 -6 c42 -4 124 -14 182 -22z m6476 -1820 c11 -44 -15 -245 -49
-380 -53 -211 -158 -448 -259 -582 -55 -73 -259 -272 -346 -337 -194 -145
-524 -250 -827 -263 l-143 -6 0 27 c0 48 21 219 36 296 21 102 85 293 127 377
201 399 585 683 1097 813 104 27 328 77 351 79 4 1 10 -10 13 -24z"/>
<path d="M245 4660 c-124 -8 -182 -28 -203 -72 -33 -69 -34 -162 -39 -2021
l-4 -1857 58 -65 58 -65 1080 3 c594 2 1093 7 1109 12 43 12 112 84 126 130 6
22 15 113 18 202 5 108 11 166 20 175 25 25 235 -60 872 -352 1357 -624 1721
-740 2330 -743 201 -1 209 0 385 37 922 193 2249 805 3050 1406 321 241 589
530 654 706 65 173 48 448 -39 640 -71 156 -194 285 -346 362 -132 66 -252 93
-424 93 -107 0 -139 -4 -206 -25 -140 -45 -292 -146 -687 -459 -498 -393 -730
-541 -851 -542 l-51 0 -21 88 c-35 141 -83 228 -183 327 -120 119 -244 187
-446 245 -219 63 -389 78 -930 79 -521 2 -491 -3 -677 110 -57 35 -177 108
-268 163 -655 399 -1218 567 -2042 609 l-138 7 0 276 c0 301 -9 384 -45 447
-32 55 -77 72 -223 84 -132 11 -1765 11 -1937 0z m1785 -2035 l0 -1625 -815 0
-815 0 0 1625 0 1625 815 0 815 0 0 -1625z m710 800 c728 -63 1098 -187 1768
-592 141 -86 309 -182 372 -213 l115 -57 585 -11 c626 -12 700 -18 847 -67 94
-32 159 -66 214 -114 41 -34 99 -106 99 -122 0 -4 -14 -11 -31 -14 -18 -4
-611 -11 -1318 -15 -858 -6 -1306 -12 -1345 -20 -90 -17 -114 -33 -147 -103
-36 -77 -36 -97 1 -175 34 -73 54 -85 176 -103 105 -15 2932 -25 3114 -11 98
8 144 17 213 43 234 84 446 223 905 592 397 319 513 395 611 405 60 5 163 -12
239 -40 112 -42 193 -151 228 -305 37 -167 -1 -260 -180 -438 -228 -227 -576
-472 -1073 -756 -786 -448 -1599 -779 -2158 -876 -157 -27 -503 -25 -656 5
-166 32 -287 65 -499 134 -349 114 -533 192 -1355 573 -479 222 -784 342 -970
382 l-40 9 -3 952 -2 952 57 0 c32 0 137 -7 233 -15z"/>
</g>
</svg>
