<?xml version="1.0" standalone="no"?>
<!DOCTYPE svg PUBLIC "-//W3C//DTD SVG 20010904//EN"
 "http://www.w3.org/TR/2001/REC-SVG-20010904/DTD/svg10.dtd">
<svg version="1.0" xmlns="http://www.w3.org/2000/svg"
 width="240.000000pt" height="240.000000pt" viewBox="0 0 240.000000 240.000000"
 preserveAspectRatio="xMidYMid meet">
<g transform="translate(0.000000,240.000000) scale(0.100000,-0.100000)"
fill="#ffffff" stroke="none">
<path d="M615 2389 c-350 -44 -562 -261 -605 -619 -13 -110 -13 -1030 0 -1140
43 -356 241 -562 590 -615 137 -21 1063 -21 1200 0 349 53 547 259 590 615 13
110 13 1030 0 1140 -44 365 -255 576 -620 620 -102 12 -1055 11 -1155 -1z
m1206 -232 c143 -33 243 -109 298 -225 53 -113 56 -157 56 -732 0 -581 -3
-621 -60 -737 -58 -120 -166 -197 -318 -225 -103 -19 -1091 -19 -1194 0 -92
17 -187 62 -242 115 -54 53 -105 156 -123 250 -19 103 -19 1091 0 1194 27 145
103 257 212 313 125 63 195 69 815 65 397 -2 503 -6 556 -18z"/>
<path d="M1785 1976 c-41 -18 -83 -69 -91 -111 -19 -102 90 -198 189 -166 57
19 107 86 107 143 0 46 -40 106 -84 127 -49 24 -78 26 -121 7z"/>
<path d="M1062 1805 c-223 -49 -420 -247 -467 -471 -45 -214 14 -414 170 -569
155 -156 355 -215 569 -170 226 48 423 245 471 471 30 141 12 282 -52 413 -52
106 -168 222 -274 274 -130 64 -277 82 -417 52z m204 -216 c168 -31 293 -157
324 -327 21 -119 -22 -251 -111 -341 -155 -154 -403 -154 -558 0 -221 222
-109 598 199 665 71 16 76 16 146 3z"/>
</g>
</svg>
