<?xml version="1.0" standalone="no"?>
<!DOCTYPE svg PUBLIC "-//W3C//DTD SVG 20010904//EN"
 "http://www.w3.org/TR/2001/REC-SVG-20010904/DTD/svg10.dtd">
<svg version="1.0" xmlns="http://www.w3.org/2000/svg"
 width="240.000000pt" height="240.000000pt" viewBox="0 0 240.000000 240.000000"
 preserveAspectRatio="xMidYMid meet">
<g transform="translate(0.000000,240.000000) scale(0.100000,-0.100000)"
fill="#f85558" stroke="none">
<path d="M376 2389 c-168 -39 -326 -200 -365 -369 -14 -62 -14 -1578 0 -1640
39 -172 197 -330 369 -369 62 -14 1578 -14 1640 0 170 39 330 199 369 369 14
62 14 1578 0 1640 -39 170 -199 330 -369 369 -57 13 -1588 13 -1644 0z m356
-335 c67 -34 104 -131 79 -207 -16 -46 -80 -104 -125 -113 -56 -10 -104 4
-146 42 -46 42 -64 90 -57 150 13 117 140 182 249 128z m68 -1004 l0 -550
-150 0 -150 0 0 550 0 550 150 0 150 0 0 -550z m500 458 l0 -93 19 30 c62 103
235 170 374 145 166 -31 273 -150 297 -331 5 -40 10 -228 10 -416 l0 -343
-150 0 -150 0 0 314 c0 342 -4 372 -58 430 -15 16 -47 37 -71 48 -81 37 -182
0 -236 -86 l-30 -49 -3 -329 -3 -328 -149 0 -150 0 0 550 0 550 150 0 150 0 0
-92z"/>
</g>
</svg>
