<?xml version="1.0" standalone="no"?>
<!DOCTYPE svg PUBLIC "-//W3C//DTD SVG 20010904//EN"
 "http://www.w3.org/TR/2001/REC-SVG-20010904/DTD/svg10.dtd">
<svg version="1.0" xmlns="http://www.w3.org/2000/svg"
 width="700.000000pt" height="700.000000pt" viewBox="0 0 980.000000 700.000000"
 preserveAspectRatio="xMidYMid meet">
<g transform="translate(0.000000,700.000000) scale(0.100000,-0.100000)"
fill="#ffffff" stroke="none">
<path d="M708 6980 c-93 -19 -216 -68 -305 -122 -128 -76 -278 -246 -339 -383
-33 -75 -64 -207 -64 -271 l0 -51 2442 -1449 c1343 -797 2447 -1450 2453
-1452 6 -1 1111 650 2455 1447 l2445 1450 3 48 c10 153 -91 383 -230 524 -112
113 -272 206 -433 251 l-80 23 -4130 2 c-3971 2 -4133 1 -4217 -17z"/>
<path d="M0 3079 c0 -2555 -4 -2390 60 -2542 42 -102 111 -197 207 -287 127
-119 276 -196 446 -231 90 -18 202 -19 4187 -19 3985 0 4097 1 4187 19 186 39
328 116 468 256 111 111 164 194 212 330 l28 80 3 2364 2 2363 -22 -14 c-84
-54 -4870 -2888 -4878 -2888 -8 0 -4792 2832 -4877 2888 l-23 14 0 -2333z"/>
</g>
</svg>
