<?xml version="1.0" standalone="no"?>
<!DOCTYPE svg PUBLIC "-//W3C//DTD SVG 20010904//EN"
 "http://www.w3.org/TR/2001/REC-SVG-20010904/DTD/svg10.dtd">
<svg version="1.0" xmlns="http://www.w3.org/2000/svg"
 width="980.000000pt" height="980.000000pt" viewBox="0 0 980.000000 980.000000"
 preserveAspectRatio="xMidYMid meet">
<g transform="translate(0.000000,980.000000) scale(0.100000,-0.100000)"
fill="#ffffff" stroke="none">
<path d="M730 5265 l0 -4535 -365 0 -365 0 0 -365 0 -365 3630 0 3630 0 0 365
0 365 -365 0 -365 0 0 2355 0 2356 423 -3 422 -3 67 -33 c85 -42 132 -95 158
-180 20 -63 20 -100 20 -1944 0 -1647 2 -1893 16 -1985 45 -305 203 -577 430
-739 357 -256 939 -255 1299 1 76 54 189 171 244 254 89 130 158 313 180 475
8 54 11 1005 11 3104 l0 3027 -960 960 -960 960 -257 -258 -258 -257 493 -493
492 -492 0 -833 0 -832 360 0 360 0 0 -2412 c-1 -2250 -2 -2416 -18 -2460 -30
-84 -73 -132 -148 -169 -66 -33 -73 -34 -189 -34 -116 0 -123 1 -187 33 -75
37 -118 84 -152 165 l-21 52 -5 1955 c-6 1943 -6 1956 -27 2045 -96 410 -369
681 -798 792 -99 26 -104 27 -547 30 l-448 4 0 1815 0 1814 -2900 0 -2900 0 0
-4535z m5080 2535 l0 -1270 -2180 0 -2180 0 0 1270 0 1270 2180 0 2180 0 0
-1270z"/>
<path d="M1810 7805 l0 -905 1820 0 1820 0 0 905 0 905 -1820 0 -1820 0 0
-905z"/>
</g>
</svg>
