<?xml version="1.0" standalone="no"?>
<!DOCTYPE svg PUBLIC "-//W3C//DTD SVG 20010904//EN"
 "http://www.w3.org/TR/2001/REC-SVG-20010904/DTD/svg10.dtd">
<svg version="1.0" xmlns="http://www.w3.org/2000/svg"
 width="980.000000pt" height="980.000000pt" viewBox="0 0 980.000000 980.000000"
 preserveAspectRatio="xMidYMid meet">
<g transform="translate(0.000000,980.000000) scale(0.100000,-0.100000)"
fill="#ffffff" stroke="none">
<path d="M4830 9793 c-14 -2 -70 -13 -125 -24 -315 -65 -549 -253 -701 -563
-68 -142 -78 -200 -72 -446 5 -171 7 -190 32 -255 100 -260 296 -472 544 -589
l62 -30 0 -358 0 -358 330 0 330 0 0 355 0 354 68 37 c246 134 404 299 501
522 205 470 -4 1013 -484 1254 -145 74 -368 120 -485 101z"/>
<path d="M1951 8669 c-296 -38 -592 -255 -735 -537 -262 -519 1 -1166 550
-1353 49 -17 136 -37 194 -46 135 -20 289 -8 438 37 56 16 107 30 114 30 7 0
125 -113 263 -250 l250 -250 235 235 235 235 -256 258 -256 257 35 105 36 105
0 195 c1 217 -6 261 -59 382 -68 157 -202 326 -339 427 -183 135 -460 202
-705 170z"/>
<path d="M7491 8655 c-219 -49 -434 -180 -567 -345 -223 -276 -277 -601 -161
-960 l24 -75 -256 -257 -256 -258 235 -235 235 -235 256 256 257 256 93 -30
c141 -47 212 -56 380 -48 168 7 232 21 346 76 268 127 471 359 542 618 125
456 -81 931 -499 1146 -144 75 -239 98 -415 102 -106 3 -169 -1 -214 -11z"/>
<path d="M845 5870 c-383 -60 -711 -361 -817 -749 -31 -112 -31 -332 0 -455
58 -233 221 -466 407 -581 95 -60 230 -118 338 -147 116 -31 296 -31 421 1
285 73 510 247 647 503 24 44 48 87 55 96 11 15 50 18 371 22 l358 5 3 333 2
332 -363 0 -363 0 -30 62 c-94 198 -278 389 -468 483 -164 81 -396 120 -561
95z"/>
<path d="M4799 5870 c-387 -46 -716 -316 -832 -686 -109 -345 -15 -726 243
-984 261 -261 635 -353 985 -243 286 90 521 314 624 595 48 130 56 177 55 348
-1 137 -4 178 -23 245 -102 377 -449 677 -836 724 -99 12 -118 12 -216 1z"/>
<path d="M8705 5870 c-78 -8 -192 -40 -272 -76 -190 -84 -424 -322 -494 -503
l-24 -61 -362 0 -363 0 0 -325 0 -325 354 0 354 0 52 -97 c73 -137 102 -176
199 -274 118 -119 249 -200 406 -254 68 -23 332 -38 428 -25 192 27 387 128
538 279 85 86 139 162 198 278 60 118 71 173 78 383 5 168 4 193 -15 270 -66
263 -274 516 -526 639 -115 56 -191 77 -332 91 -110 11 -119 11 -219 0z"/>
<path d="M4610 3250 c-672 -70 -1323 -344 -1870 -789 -206 -167 -522 -499
-703 -739 l-77 -101 0 -811 0 -810 2940 0 2940 0 0 818 -1 817 -137 174 c-149
190 -378 433 -537 570 -546 472 -1166 760 -1842 857 -127 18 -584 27 -713 14z
m-50 -706 c6 -15 10 -265 10 -640 l0 -614 330 0 330 0 1 593 c0 325 4 612 7
637 l7 45 55 -1 c30 -1 116 -16 190 -34 618 -150 1164 -497 1609 -1023 l91
-108 0 -370 0 -369 -2290 0 -2290 0 0 358 0 357 138 155 c488 547 978 852
1618 1009 155 38 182 39 194 5z"/>
</g>
</svg>
