<svg style="display:none">
  <symbol id="mail" width="980.000000pt" height="700.000000pt" viewBox="0 0 980 700" preserveAspectRatio="xMidYMid meet">
    <path d="M708 6980 c-93 -19 -216 -68 -305 -122 -128 -76 -278 -246 -339 -383
    -33 -75 -64 -207 -64 -271 l0 -51 2442 -1449 c1343 -797 2447 -1450 2453
    -1452 6 -1 1111 650 2455 1447 l2445 1450 3 48 c10 153 -91 383 -230 524 -112
    113 -272 206 -433 251 l-80 23 -4130 2 c-3971 2 -4133 1 -4217 -17z"/>
    <path d="M0 3079 c0 -2555 -4 -2390 60 -2542 42 -102 111 -197 207 -287 127
    -119 276 -196 446 -231 90 -18 202 -19 4187 -19 3985 0 4097 1 4187 19 186 39
    328 116 468 256 111 111 164 194 212 330 l28 80 3 2364 2 2363 -22 -14 c-84
    -54 -4870 -2888 -4878 -2888 -8 0 -4792 2832 -4877 2888 l-23 14 0 -2333z"/>
  </symbol>
  <symbol id="linkedin" viewBox="0 0 240.000000 240.000000">
    <path d="M376 2389 c-168 -39 -326 -200 -365 -369 -14 -62 -14 -1578 0 -1640
    39 -172 197 -330 369 -369 62 -14 1578 -14 1640 0 170 39 330 199 369 369 14
    62 14 1578 0 1640 -39 170 -199 330 -369 369 -57 13 -1588 13 -1644 0z m356
    -335 c67 -34 104 -131 79 -207 -16 -46 -80 -104 -125 -113 -56 -10 -104 4
    -146 42 -46 42 -64 90 -57 150 13 117 140 182 249 128z m68 -1004 l0 -550
    -150 0 -150 0 0 550 0 550 150 0 150 0 0 -550z m500 458 l0 -93 19 30 c62 103
    235 170 374 145 166 -31 273 -150 297 -331 5 -40 10 -228 10 -416 l0 -343
    -150 0 -150 0 0 314 c0 342 -4 372 -58 430 -15 16 -47 37 -71 48 -81 37 -182
    0 -236 -86 l-30 -49 -3 -329 -3 -328 -149 0 -150 0 0 550 0 550 150 0 150 0 0
    -92z"/>
  </symbol>
  <symbol id="instagram" viewBox="0 0 240.000000 240.000000">
    <path d="M615 2389 c-350 -44 -562 -261 -605 -619 -13 -110 -13 -1030 0 -1140
    43 -356 241 -562 590 -615 137 -21 1063 -21 1200 0 349 53 547 259 590 615 13
    110 13 1030 0 1140 -44 365 -255 576 -620 620 -102 12 -1055 11 -1155 -1z
    m1206 -232 c143 -33 243 -109 298 -225 53 -113 56 -157 56 -732 0 -581 -3
    -621 -60 -737 -58 -120 -166 -197 -318 -225 -103 -19 -1091 -19 -1194 0 -92
    17 -187 62 -242 115 -54 53 -105 156 -123 250 -19 103 -19 1091 0 1194 27 145
    103 257 212 313 125 63 195 69 815 65 397 -2 503 -6 556 -18z"/>
    <path d="M1785 1976 c-41 -18 -83 -69 -91 -111 -19 -102 90 -198 189 -166 57
    19 107 86 107 143 0 46 -40 106 -84 127 -49 24 -78 26 -121 7z"/>
    <path d="M1062 1805 c-223 -49 -420 -247 -467 -471 -45 -214 14 -414 170 -569
    155 -156 355 -215 569 -170 226 48 423 245 471 471 30 141 12 282 -52 413 -52
    106 -168 222 -274 274 -130 64 -277 82 -417 52z m204 -216 c168 -31 293 -157
    324 -327 21 -119 -22 -251 -111 -341 -155 -154 -403 -154 -558 0 -221 222
    -109 598 199 665 71 16 76 16 146 3z"/>
  </symbol>
  <symbol id="github" viewBox="0 0 120.000000 120.000000">
    <path d="M441 1174 c-105 -28 -181 -73 -266 -159 -125 -124 -175 -246 -175
    -425 0 -179 50 -300 175 -425 85 -85 185 -145 243 -145 36 0 42 13 42 89 l0
    57 -57 -3 c-74 -5 -117 17 -150 78 -13 24 -37 56 -54 71 -34 33 -36 38 -9 38
    12 0 20 -7 20 -16 0 -10 6 -14 14 -11 10 4 13 1 9 -9 -3 -10 2 -14 18 -14 18
    0 20 -3 10 -9 -16 -11 -4 -34 14 -27 9 3 11 -2 7 -16 -4 -18 -2 -20 21 -14 20
    5 25 3 21 -8 -9 -23 17 -31 33 -11 12 17 13 17 13 2 0 -11 8 -17 21 -17 15 0
    19 5 15 15 -3 8 -1 15 4 15 6 0 10 -7 10 -15 0 -8 7 -15 15 -15 8 0 15 8 15
    18 0 10 10 39 23 64 l23 46 -59 13 c-136 28 -210 123 -211 268 -1 66 3 82 27
    124 23 39 27 55 22 86 -7 40 9 121 24 121 18 0 78 -25 113 -46 30 -19 42 -22
    70 -14 18 6 71 10 118 10 47 0 100 -4 118 -10 28 -8 40 -5 70 14 35 21 95 46
    113 46 15 0 31 -81 24 -121 -5 -31 -1 -47 22 -86 24 -42 28 -58 27 -123 -1
    -147 -65 -231 -203 -266 l-68 -18 18 -30 c15 -25 19 -51 19 -138 0 -58 3 -113
    6 -122 20 -52 166 16 279 129 125 125 175 246 175 425 0 179 -50 301 -175 425
    -86 87 -161 131 -270 160 -75 19 -241 19 -314 -1z"/>
  </symbol>
</svg>
