<?xml version="1.0" standalone="no"?>
<!DOCTYPE svg PUBLIC "-//W3C//DTD SVG 20010904//EN"
 "http://www.w3.org/TR/2001/REC-SVG-20010904/DTD/svg10.dtd">
<svg version="1.0" xmlns="http://www.w3.org/2000/svg"
 width="900.000000pt" height="900.000000pt" viewBox="0 0 900.000000 900.000000"
 preserveAspectRatio="xMidYMid meet">
<metadata>
Created by potrace 1.10, written by Peter Selinger 2001-2011
</metadata>
<g transform="translate(0.000000,900.000000) scale(0.100000,-0.100000)"
fill="#ffffff" stroke="none">
<path d="M6870 8987 c0 -8 -11 -19 -24 -25 -92 -42 -111 -195 -34 -269 54 -50
75 -53 410 -53 198 0 316 -4 329 -11 18 -9 -69 -99 -834 -865 -470 -470 -858
-854 -863 -854 -4 0 -157 148 -339 330 -258 257 -341 334 -379 351 -52 22 -89
21 -144 -7 -43 -21 -3212 -3196 -3235 -3241 -25 -47 -19 -119 14 -168 51 -78
162 -99 235 -47 21 16 717 707 1546 1535 828 829 1512 1507 1519 1507 7 0 164
-150 349 -334 346 -345 365 -360 441 -358 15 0 44 9 66 20 23 12 407 389 959
941 507 507 928 921 937 921 14 0 16 -36 19 -313 l3 -314 28 -36 c36 -47 80
-70 137 -71 60 -1 116 28 148 77 l27 41 0 560 0 561 -23 38 c-13 21 -37 44
-53 52 -16 9 -29 22 -29 30 0 13 -79 15 -605 15 -499 0 -605 -2 -605 -13z"/>
<path d="M6725 6393 c-180 -66 -286 -181 -329 -354 -15 -59 -16 -323 -16
-2876 0 -2554 -1 -2811 -16 -2817 -9 -3 -221 -6 -473 -6 -350 0 -461 3 -474
12 -16 12 -17 126 -19 1593 l-3 1580 -37 75 c-71 145 -198 240 -357 266 -109
18 -869 20 -988 3 -191 -28 -348 -164 -401 -349 -14 -49 -17 -234 -21 -1615
l-6 -1560 -469 -3 c-338 -1 -473 1 -482 9 -12 10 -14 146 -14 799 0 866 -1
887 -59 997 -36 68 -120 157 -176 186 -123 65 -88 62 -670 62 -581 0 -535 4
-663 -59 -45 -22 -143 -114 -167 -157 -36 -64 -53 -111 -64 -171 -7 -44 -11
-311 -11 -854 0 -601 -3 -793 -12 -802 -9 -9 -71 -12 -215 -12 -252 0 -287
-11 -334 -102 -38 -74 -11 -167 60 -215 l34 -23 4147 0 4147 0 34 23 c71 48
98 141 60 215 -46 89 -84 102 -313 102 -101 0 -193 3 -205 6 l-23 6 -2 2847
-3 2846 -23 53 c-61 144 -157 237 -297 288 l-68 24 -516 -1 c-429 -1 -523 -3
-556 -16z m1061 -359 c15 -11 33 -36 40 -55 10 -27 13 -626 13 -2826 1 -2759
1 -2792 -19 -2803 -13 -7 -194 -9 -547 -8 l-528 3 -3 2820 -2 2819 31 33 c18
17 41 34 53 36 12 3 227 4 478 3 444 -1 457 -2 484 -22z m-2800 -2528 c17 -10
40 -33 50 -50 18 -30 19 -82 22 -1564 l2 -1532 -25 -10 c-29 -11 -1042 -14
-1069 -4 -15 6 -16 151 -16 1546 l0 1541 21 33 c11 19 21 34 22 34 1 0 20 7
42 15 33 12 115 14 480 12 411 -2 442 -3 471 -21z m-2795 -1473 c32 -12 46
-26 60 -57 18 -39 19 -82 19 -829 l0 -787 -26 -10 c-34 -13 -1024 -13 -1058 0
l-26 10 0 790 c0 765 1 792 20 829 35 70 38 70 532 70 385 1 443 -1 479 -16z"/>
<path d="M1229 3805 c-47 -31 -69 -66 -76 -124 -7 -62 9 -110 50 -148 46 -44
107 -56 171 -35 140 47 160 232 33 311 -48 30 -130 28 -178 -4z"/>
</g>
</svg>
