<?xml version="1.0" standalone="no"?>
<!DOCTYPE svg PUBLIC "-//W3C//DTD SVG 20010904//EN"
 "http://www.w3.org/TR/2001/REC-SVG-20010904/DTD/svg10.dtd">
<svg version="1.0" xmlns="http://www.w3.org/2000/svg"
 width="900.000000pt" height="900.000000pt" viewBox="0 0 900.000000 900.000000"
 preserveAspectRatio="xMidYMid meet">
<metadata>
Created by potrace 1.10, written by Peter Selinger 2001-2011
</metadata>
<g transform="translate(0.000000,900.000000) scale(0.100000,-0.100000)"
fill="#ffffff" stroke="none">
<path d="M6180 8155 c-19 -13 -265 -254 -547 -537 -349 -350 -514 -522 -519
-541 -18 -76 -14 -82 303 -399 202 -202 308 -302 330 -309 49 -16 91 3 159 71
32 33 64 59 69 60 6 0 75 -65 155 -145 l145 -145 0 -118 c0 -64 4 -148 9 -185
l9 -69 -609 -609 c-335 -335 -613 -609 -619 -609 -6 0 -394 384 -863 853 -839
839 -877 880 -842 902 14 9 40 70 56 135 17 70 17 159 0 232 -30 126 -43 141
-631 726 -302 302 -566 557 -585 566 -94 47 -139 58 -240 58 -113 0 -171 -15
-260 -70 -37 -23 -311 -290 -831 -810 -790 -790 -828 -832 -854 -927 -14 -53
-17 -237 -5 -280 35 -121 38 -124 604 -693 298 -299 564 -558 591 -576 90 -59
137 -71 265 -70 101 1 123 5 183 29 64 26 71 27 130 16 34 -7 96 -18 137 -26
368 -69 403 -77 422 -100 10 -11 17 -24 18 -28 0 -7 69 -128 100 -177 6 -8 13
-22 17 -30 4 -8 32 -58 63 -110 31 -52 59 -102 63 -110 4 -8 16 -28 27 -45 11
-16 23 -37 26 -45 15 -33 49 -54 117 -71 39 -11 79 -19 90 -19 10 0 49 -6 86
-14 36 -8 104 -22 151 -31 47 -9 117 -23 155 -31 39 -8 82 -14 96 -14 14 0 32
-6 41 -12 13 -12 78 -112 78 -122 0 -2 33 -60 73 -127 40 -68 76 -131 80 -139
4 -8 13 -24 20 -35 48 -79 77 -134 77 -146 0 -8 -379 -394 -843 -859 -648
-649 -849 -857 -871 -897 -112 -215 -56 -474 132 -616 69 -51 108 -70 188 -91
77 -20 142 -20 224 2 140 37 116 15 1131 1029 521 520 952 943 957 939 6 -3
35 -48 64 -99 29 -50 58 -101 65 -112 7 -11 16 -29 22 -41 12 -28 67 -73 94
-78 12 -2 59 -11 105 -20 85 -17 182 -35 325 -61 45 -9 116 -23 157 -33 l74
-17 39 -65 c21 -36 42 -74 47 -85 6 -11 14 -27 20 -35 23 -34 100 -171 100
-177 0 -4 6 -14 14 -22 7 -9 28 -43 46 -76 54 -97 79 -134 102 -149 22 -14 85
-29 258 -61 47 -9 117 -22 155 -30 39 -7 115 -21 170 -31 88 -15 103 -21 127
-48 15 -17 28 -34 28 -37 0 -6 136 -243 160 -279 6 -8 13 -22 17 -30 4 -8 26
-48 50 -88 24 -40 43 -75 43 -78 0 -4 13 -23 29 -43 34 -43 79 -59 246 -86 55
-9 126 -23 157 -31 32 -8 68 -14 80 -14 12 0 49 -6 82 -14 34 -7 104 -22 157
-31 94 -18 98 -17 132 1 52 28 455 422 479 468 19 36 19 41 4 80 -13 33 -270
295 -1266 1291 -687 687 -1250 1257 -1250 1265 0 24 1181 1200 1205 1200 11 0
54 -7 95 -16 47 -9 119 -15 190 -14 63 1 120 1 127 1 6 -1 52 -37 102 -81 105
-92 323 -254 419 -311 104 -61 300 -162 377 -194 150 -63 189 -78 250 -101 39
-14 84 -29 100 -34 17 -5 55 -18 85 -30 142 -56 186 -56 248 0 28 26 32 36 32
80 0 37 -4 50 -15 50 -8 0 -17 12 -21 28 -5 24 -13 47 -45 130 -5 13 -18 52
-30 85 -17 52 -73 193 -123 312 -18 41 -84 174 -105 210 -10 17 -34 60 -54 97
-66 120 -200 305 -335 461 l-85 98 -2 167 c-1 128 -6 181 -19 227 -79 261
-197 432 -386 558 -173 115 -314 157 -553 166 l-157 6 -140 139 c-77 76 -140
145 -140 154 0 8 13 27 29 42 97 86 123 158 79 216 -46 63 -565 577 -600 595
-48 25 -75 23 -118 -6z m260 -459 c99 -99 180 -187 180 -195 0 -20 -820 -841
-840 -841 -17 0 -380 359 -380 376 0 18 833 845 848 842 7 -2 94 -84 192 -182z
m-4365 136 c24 -12 248 -230 565 -549 473 -475 528 -533 543 -578 22 -66 22
-101 -4 -169 -20 -51 -80 -113 -790 -823 -466 -466 -784 -777 -809 -790 -60
-32 -116 -38 -186 -18 -59 17 -60 18 -591 549 -353 353 -538 545 -552 573 -29
58 -29 157 0 214 22 41 1484 1514 1562 1573 20 16 52 32 70 37 52 13 149 4
192 -19z m4709 -871 c94 -94 184 -176 199 -184 23 -12 62 -14 195 -10 147 5
176 3 245 -16 173 -46 312 -144 412 -291 91 -135 141 -343 116 -490 -21 -127
-11 -166 64 -246 101 -109 166 -185 207 -243 26 -36 68 -94 93 -128 25 -34 54
-79 66 -100 11 -21 36 -65 55 -98 37 -66 100 -191 121 -242 7 -18 19 -48 27
-65 7 -18 28 -66 45 -107 30 -71 38 -111 25 -124 -3 -3 -20 0 -38 8 -17 7 -67
27 -111 45 -156 62 -249 104 -325 148 -19 12 -55 32 -80 45 -158 86 -330 211
-494 360 -60 54 -119 102 -131 107 -12 4 -95 6 -186 3 -149 -5 -171 -4 -244
17 -201 56 -355 174 -449 344 -68 123 -102 291 -85 431 19 172 33 143 -171
349 -99 100 -180 188 -180 195 0 12 438 461 449 461 3 0 81 -76 175 -169z
m-2741 -1661 c718 -720 846 -852 838 -867 -5 -10 -226 -234 -490 -497 -411
-411 -482 -478 -495 -467 -8 7 -32 43 -53 79 -21 37 -43 76 -50 87 -7 11 -15
27 -19 35 -8 16 -87 154 -104 180 -5 8 -19 33 -31 55 -36 67 -87 139 -106 151
-10 6 -58 18 -108 28 -49 9 -121 23 -160 31 -38 7 -113 21 -165 31 -269 49
-261 47 -286 90 -13 21 -28 48 -34 59 -5 11 -14 27 -20 35 -14 22 -95 163
-103 180 -4 8 -20 36 -35 61 -15 25 -49 84 -76 130 -26 46 -59 92 -72 102 -24
18 -90 36 -229 61 -44 8 -116 22 -160 30 -44 9 -91 17 -104 19 -14 1 -26 7
-28 13 -5 16 1205 1224 1225 1224 9 0 398 -382 865 -850z m2344 272 c7 -4 30
-35 51 -68 46 -71 169 -198 230 -239 23 -15 42 -34 42 -41 0 -7 -929 -942
-2064 -2078 -1626 -1627 -2073 -2069 -2109 -2085 -129 -59 -291 10 -340 145
-22 62 -22 106 0 169 16 46 187 220 2093 2127 1141 1143 2077 2077 2080 2077
3 1 10 -3 17 -7z m414 -3030 c659 -659 1199 -1203 1199 -1210 0 -11 -264 -274
-282 -281 -6 -2 -34 1 -62 7 -66 14 -188 37 -301 57 -145 25 -198 37 -220 47
-17 8 -53 65 -175 278 -56 98 -102 178 -110 190 -5 8 -19 34 -31 57 -34 65
-70 93 -146 114 -37 10 -79 18 -93 19 -14 0 -56 6 -95 14 -38 8 -108 22 -155
31 -47 9 -116 23 -155 31 -38 8 -80 14 -92 14 -20 0 -63 42 -63 61 0 4 -13 28
-30 52 -16 25 -30 47 -30 50 0 5 -101 181 -130 227 -5 8 -21 38 -36 65 -80
149 -121 187 -214 200 -25 3 -76 13 -115 20 -38 8 -108 21 -155 30 -47 9 -116
23 -155 31 -38 8 -83 14 -100 14 -45 1 -71 20 -110 79 -19 29 -35 54 -35 57 0
2 -20 38 -45 80 -25 41 -45 83 -45 92 0 20 749 772 768 772 7 0 553 -539 1213
-1198z"/>
<path d="M2149 7112 c-31 -9 -79 -31 -105 -49 -27 -17 -268 -251 -535 -520
-521 -522 -513 -513 -538 -641 -21 -108 11 -216 92 -308 103 -117 204 -208
272 -245 81 -45 237 -40 335 10 53 27 1050 1017 1050 1043 0 8 6 21 14 27 8 6
16 24 19 39 3 15 11 51 18 80 10 44 9 63 -6 125 -23 95 -62 152 -186 273 -119
116 -160 144 -245 167 -74 21 -112 20 -185 -1z m159 -241 c39 -20 187 -167
215 -213 26 -41 21 -89 -11 -134 -16 -22 -235 -245 -486 -497 -498 -497 -496
-495 -574 -468 -23 8 -73 48 -130 105 -127 124 -147 176 -96 252 36 53 922
937 959 957 40 22 78 21 123 -2z"/>
</g>
</svg>
