<?xml version="1.0" standalone="no"?>
<!DOCTYPE svg PUBLIC "-//W3C//DTD SVG 20010904//EN"
 "http://www.w3.org/TR/2001/REC-SVG-20010904/DTD/svg10.dtd">
<svg version="1.0" xmlns="http://www.w3.org/2000/svg"
 width="900.000000pt" height="900.000000pt" viewBox="0 0 900.000000 900.000000"
 preserveAspectRatio="xMidYMid meet">
<metadata>
Created by potrace 1.10, written by Peter Selinger 2001-2011
</metadata>
<g transform="translate(0.000000,900.000000) scale(0.100000,-0.100000)"
fill="#ffffff" stroke="none">
<path d="M2880 8992 c0 -10 -1033 -1042 -1055 -1054 -10 -6 -27 -3 -48 7 -143
73 -328 74 -484 3 -98 -45 -216 -163 -261 -261 -57 -125 -69 -277 -32 -396 12
-36 24 -69 29 -75 5 -6 12 -22 16 -35 6 -21 -49 -79 -519 -550 l-526 -527 0
-57 c0 -69 18 -102 68 -122 44 -19 76 -19 110 -1 15 8 256 244 537 525 544
545 525 529 590 495 41 -22 177 -54 228 -54 49 0 175 30 232 56 22 10 47 17
55 15 8 -1 59 -46 113 -99 112 -110 109 -100 63 -232 -47 -135 -31 -297 44
-435 43 -80 47 -84 389 -430 332 -337 331 -335 392 -425 57 -84 59 -88 113
-195 59 -118 89 -206 126 -360 30 -128 30 -462 0 -590 -37 -154 -67 -242 -126
-360 -103 -205 -144 -257 -489 -605 -360 -363 -362 -365 -405 -445 -75 -138
-91 -300 -44 -435 46 -132 49 -122 -63 -232 -54 -53 -105 -98 -113 -99 -8 -2
-33 5 -55 15 -57 26 -183 56 -232 56 -51 0 -187 -32 -228 -54 -65 -34 -46 -50
-590 495 -281 281 -522 517 -537 525 -34 18 -66 18 -110 -1 -50 -20 -68 -53
-68 -122 l0 -57 526 -527 c470 -471 525 -529 519 -550 -4 -13 -11 -29 -16 -35
-24 -30 -49 -144 -49 -228 0 -178 75 -333 214 -441 166 -128 406 -153 581 -61
17 9 34 16 40 16 5 0 246 -236 535 -525 l526 -525 57 0 c69 0 102 18 122 68
19 44 19 76 1 110 -8 15 -244 256 -525 537 -545 544 -529 525 -495 590 22 41
54 177 54 228 0 49 -30 175 -56 232 -10 22 -17 47 -15 55 1 8 46 59 99 112
102 103 119 111 170 84 69 -37 114 -46 225 -46 105 0 179 13 227 41 8 5 29 15
45 22 49 23 106 75 425 390 168 166 319 314 335 328 130 111 348 225 535 278
123 35 165 43 290 51 302 19 530 -24 775 -146 206 -103 256 -144 610 -495 344
-341 386 -379 449 -410 98 -48 147 -59 263 -59 111 0 156 9 225 46 51 27 68
19 170 -83 53 -54 98 -105 99 -113 2 -8 -5 -33 -15 -55 -26 -57 -56 -183 -56
-232 0 -51 32 -187 54 -228 35 -65 51 -46 -495 -590 -281 -281 -517 -522 -525
-537 -18 -34 -18 -66 1 -110 20 -50 53 -68 122 -68 l57 0 526 525 c289 289
530 525 535 525 6 0 24 -7 40 -16 136 -72 327 -73 482 -2 98 45 216 163 261
261 71 156 70 341 -3 484 -10 21 -13 38 -7 48 12 22 1044 1055 1054 1055 4 0
8 22 8 49 0 41 -5 54 -32 83 -54 57 -112 72 -166 44 -15 -8 -256 -244 -537
-525 -544 -546 -525 -530 -590 -495 -41 22 -177 54 -228 54 -49 0 -175 -30
-232 -56 -22 -10 -47 -17 -55 -15 -8 1 -59 46 -113 99 -112 110 -109 100 -63
232 47 135 31 297 -44 435 -43 80 -45 81 -404 445 -345 349 -388 401 -490 605
-59 118 -89 205 -126 360 -30 125 -30 465 0 590 37 155 67 242 126 360 103
205 144 257 489 605 360 363 362 365 405 445 75 138 91 300 44 435 -46 132
-49 122 63 232 54 53 105 98 113 99 8 2 33 -5 55 -15 57 -26 183 -56 232 -56
51 0 187 32 228 54 65 35 46 51 590 -495 281 -281 522 -517 537 -525 54 -28
112 -13 166 44 27 29 32 42 32 83 0 27 -4 49 -8 49 -10 0 -1042 1033 -1054
1055 -6 10 -3 27 7 48 73 143 74 328 3 484 -45 98 -163 216 -261 261 -156 71
-341 70 -484 -3 -21 -10 -38 -13 -48 -7 -22 12 -1055 1044 -1055 1054 0 4 -22
8 -49 8 -41 0 -54 -5 -83 -32 -57 -55 -72 -113 -44 -166 8 -15 244 -256 525
-537 545 -544 529 -525 495 -590 -22 -41 -54 -177 -54 -228 0 -49 30 -175 56
-232 10 -22 17 -47 15 -55 -1 -8 -46 -59 -99 -112 -102 -103 -119 -111 -170
-84 -69 37 -114 46 -225 46 -116 0 -165 -11 -263 -59 -63 -31 -105 -69 -449
-410 -296 -293 -370 -358 -500 -438 -39 -24 -201 -102 -245 -118 -52 -18 -153
-48 -225 -65 -123 -29 -467 -29 -590 0 -156 37 -242 67 -360 126 -107 54 -111
56 -195 113 -90 62 -87 59 -430 398 -328 324 -371 363 -434 394 -95 46 -152
59 -265 59 -109 0 -154 -9 -223 -46 -51 -27 -68 -19 -170 84 -53 53 -98 104
-99 112 -2 8 5 33 15 55 26 57 56 183 56 232 0 51 -32 187 -54 228 -35 65 -51
46 495 590 281 281 517 522 525 537 28 54 13 112 -44 166 -29 27 -42 32 -83
32 -27 0 -49 -4 -49 -8z m-1223 -1283 c92 -44 163 -157 163 -259 0 -114 -69
-218 -176 -265 -108 -48 -219 -27 -310 57 -64 59 -88 116 -87 208 1 111 47
192 141 247 79 46 185 51 269 12z m5926 -7 c99 -53 149 -138 150 -252 1 -92
-23 -149 -87 -208 -91 -84 -202 -105 -310 -57 -107 47 -176 151 -176 265 0
131 103 256 230 281 58 11 142 -1 193 -29z m-4935 -981 c20 -11 182 -163 359
-339 177 -177 348 -340 378 -364 83 -63 198 -141 242 -163 21 -11 45 -25 53
-31 17 -12 217 -95 272 -113 81 -26 159 -44 278 -65 l125 -21 5 -382 5 -382
34 -35 c32 -33 40 -36 91 -36 51 0 59 3 91 36 l34 35 5 382 5 382 125 21 c119
21 197 39 278 65 65 21 257 102 273 116 8 7 20 13 25 13 6 0 41 20 78 45 38
25 71 45 74 45 22 0 252 210 507 464 174 173 328 317 350 329 32 17 58 21 130
21 79 -1 96 -4 137 -28 96 -55 138 -130 138 -245 0 -137 -7 -147 -354 -494
-166 -166 -335 -345 -377 -397 -72 -90 -169 -237 -169 -255 0 -5 -6 -16 -13
-24 -16 -18 -97 -212 -120 -286 -22 -69 -45 -172 -65 -290 l-17 -100 -382 -5
-382 -5 -35 -34 c-33 -32 -36 -40 -36 -91 0 -51 3 -59 36 -91 l35 -34 382 -5
382 -5 21 -125 c21 -118 39 -196 65 -278 21 -65 102 -257 116 -273 7 -8 13
-19 13 -24 0 -18 97 -165 169 -255 42 -52 212 -231 377 -398 347 -348 354
-358 354 -493 0 -114 -41 -188 -138 -245 -42 -25 -56 -28 -137 -28 -72 0 -98
4 -130 21 -22 12 -176 156 -350 329 -170 170 -353 343 -405 385 -90 72 -237
169 -255 169 -5 0 -16 6 -24 13 -18 16 -212 97 -286 120 -69 22 -172 45 -290
65 l-100 17 -5 382 -5 382 -34 35 c-32 33 -40 36 -91 36 -51 0 -59 -3 -91 -36
l-34 -35 -5 -382 -5 -382 -100 -17 c-118 -20 -221 -43 -290 -65 -74 -23 -268
-104 -286 -120 -8 -7 -19 -13 -24 -13 -18 0 -165 -97 -255 -169 -52 -42 -234
-215 -405 -385 -174 -173 -328 -317 -350 -329 -32 -17 -58 -21 -130 -21 -79 1
-96 4 -137 28 -96 55 -138 130 -138 245 0 135 7 145 354 493 165 167 335 346
377 398 72 90 169 237 169 255 0 5 6 16 13 24 16 18 97 212 120 286 22 69 45
172 65 290 l17 100 382 5 382 5 35 34 c33 32 36 40 36 91 0 51 -3 59 -36 91
l-35 34 -382 5 -382 5 -17 100 c-20 118 -43 221 -65 290 -23 74 -104 268 -120
286 -7 8 -13 19 -13 24 0 18 -97 165 -169 255 -42 52 -211 231 -377 396 -347
348 -354 358 -354 495 0 86 14 127 66 188 29 35 92 72 139 83 50 11 163 -1
203 -21z m-1004 -4926 c72 -32 119 -79 151 -151 48 -108 27 -219 -58 -311 -57
-62 -114 -85 -207 -86 -115 0 -198 51 -254 154 -24 44 -29 63 -29 128 1 91 23
147 80 203 91 88 207 112 317 63z m5911 4 c64 -28 131 -91 156 -148 30 -65 30
-180 0 -239 -31 -61 -73 -104 -132 -136 -69 -38 -181 -41 -251 -7 -57 27 -119
93 -147 156 -42 94 -18 223 57 304 75 83 218 114 317 70z"/>
<path d="M1466 7561 c-65 -43 -84 -115 -45 -178 68 -109 239 -63 239 65 0 99
-114 165 -194 113z"/>
<path d="M7382 7559 c-109 -70 -61 -239 68 -239 97 0 163 115 111 194 -43 65
-118 84 -179 45z"/>
<path d="M1468 1645 c-35 -20 -68 -75 -68 -116 0 -64 65 -129 129 -129 42 0
97 33 116 70 58 111 -67 234 -177 175z"/>
<path d="M7383 1640 c-110 -67 -61 -240 68 -240 64 0 129 65 129 129 0 99
-112 163 -197 111z"/>
</g>
</svg>
