<?xml version="1.0" standalone="no"?>
<!DOCTYPE svg PUBLIC "-//W3C//DTD SVG 20010904//EN"
 "http://www.w3.org/TR/2001/REC-SVG-20010904/DTD/svg10.dtd">
<svg version="1.0" xmlns="http://www.w3.org/2000/svg"
 width="900.000000pt" height="900.000000pt" viewBox="0 0 900.000000 900.000000"
 preserveAspectRatio="xMidYMid meet">
<metadata>
Created by potrace 1.10, written by Peter Selinger 2001-2011
</metadata>
<g transform="translate(0.000000,900.000000) scale(0.100000,-0.100000)"
fill="#ffffff" stroke="none">
<path d="M3555 8024 c-161 -38 -228 -75 -314 -171 -79 -88 -122 -186 -140
-325 -22 -164 22 -345 143 -578 87 -170 96 -188 96 -194 0 -4 -10 -11 -22 -16
-13 -6 -36 -18 -53 -28 -16 -10 -66 -38 -110 -62 -44 -24 -106 -60 -138 -82
-32 -21 -60 -38 -62 -38 -8 0 -106 -68 -220 -154 -397 -298 -728 -642 -982
-1021 -63 -94 -58 -93 -157 -33 -48 29 -99 61 -114 70 -15 9 -37 23 -49 30
-22 13 -388 237 -441 270 -15 9 -37 23 -50 30 -12 7 -93 56 -180 109 -195 120
-194 119 -261 135 -221 53 -422 -70 -491 -301 -13 -45 -9 -246 7 -310 23 -92
154 -382 211 -465 13 -19 28 -44 33 -55 5 -11 18 -33 29 -50 11 -16 23 -37 27
-45 3 -8 44 -72 90 -142 93 -141 92 -132 32 -209 -16 -20 -29 -40 -29 -44 0
-4 -13 -24 -28 -44 -16 -20 -32 -43 -35 -51 -4 -8 -16 -28 -27 -45 -11 -16
-23 -37 -27 -45 -4 -8 -24 -43 -45 -78 -110 -180 -195 -370 -234 -519 -17 -65
-18 -242 -3 -292 43 -137 135 -241 259 -291 57 -22 192 -25 253 -4 42 14 248
133 445 256 15 9 37 23 49 30 12 7 87 53 165 101 79 49 152 94 163 100 11 7
49 30 85 53 36 22 72 44 80 47 8 4 51 30 95 57 l80 50 23 -27 c13 -16 63 -83
110 -149 154 -216 234 -312 422 -508 212 -221 618 -536 870 -674 25 -14 72
-40 105 -59 33 -18 68 -36 77 -39 31 -11 27 -32 -26 -136 -141 -273 -188 -455
-165 -626 33 -247 163 -410 384 -480 105 -33 286 -8 400 55 11 6 153 78 315
161 162 82 408 207 545 277 138 71 324 166 415 212 l165 83 155 16 c85 8 191
22 235 30 44 8 91 14 105 14 25 0 127 20 230 45 30 8 84 21 120 30 145 35 339
101 550 185 93 37 340 161 443 222 53 32 99 58 101 58 24 0 428 296 546 399
282 247 581 588 760 866 32 49 106 168 124 198 34 57 165 310 192 372 7 17 26
59 42 95 16 36 32 75 36 88 4 12 14 22 22 22 11 0 14 16 14 70 0 51 -4 70 -13
70 -7 0 -24 26 -37 58 -33 81 -77 176 -115 252 -78 152 -105 201 -174 315 -40
66 -78 129 -84 140 -7 11 -30 44 -53 75 -22 30 -55 77 -73 104 -71 106 -264
329 -426 491 -189 189 -344 320 -540 458 -194 137 -560 342 -725 407 -30 12
-71 28 -90 37 -19 8 -48 21 -65 28 -16 7 -55 21 -85 30 -30 10 -66 22 -78 26
-43 17 -136 46 -202 63 -36 10 -85 23 -110 31 -128 38 -534 105 -634 105 -36
0 -86 21 -282 121 -132 67 -471 238 -754 381 -283 143 -533 270 -555 281 -110
58 -281 97 -350 81z m119 -346 c22 -7 106 -46 186 -86 193 -99 1196 -605 1335
-675 147 -73 186 -87 246 -87 154 0 552 -75 778 -147 110 -35 110 -33 43 -121
-119 -159 -182 -269 -182 -319 0 -29 27 -90 50 -113 37 -37 66 -50 113 -50 84
0 111 22 209 171 72 108 175 242 199 257 13 9 48 -5 160 -62 151 -76 235 -121
258 -139 7 -6 21 -16 31 -22 190 -107 461 -320 661 -516 118 -117 174 -178
303 -330 63 -74 236 -311 236 -323 0 -3 19 -33 43 -68 23 -35 51 -79 62 -98
117 -208 228 -441 228 -480 0 -26 -128 -303 -185 -400 -75 -129 -164 -273
-196 -316 -20 -28 -63 -88 -95 -132 -51 -73 -99 -131 -231 -282 -61 -69 -273
-275 -351 -340 -184 -154 -392 -302 -568 -404 -93 -54 -280 -146 -296 -146
-40 0 -256 284 -346 455 -14 28 -42 79 -61 115 -35 64 -46 89 -106 240 -16 41
-36 90 -44 108 -8 18 -14 43 -14 55 -1 12 -7 33 -15 47 -8 14 -14 35 -15 47 0
12 -6 37 -14 55 -13 30 -21 64 -61 258 -83 393 -83 928 0 1350 8 41 16 86 18
100 4 24 33 129 64 235 8 28 17 76 20 107 4 47 2 63 -17 92 -47 77 -120 107
-192 80 -68 -27 -99 -63 -119 -139 -4 -16 -17 -61 -28 -100 -158 -545 -187
-1219 -76 -1770 38 -194 47 -233 59 -270 8 -22 21 -69 31 -105 24 -88 41 -141
77 -230 17 -41 37 -93 45 -115 63 -169 243 -483 365 -640 43 -55 78 -105 78
-111 0 -12 -41 -28 -145 -59 -33 -10 -77 -24 -98 -31 -20 -8 -48 -14 -60 -14
-13 0 -43 -6 -68 -14 -113 -35 -302 -64 -588 -91 l-164 -16 -106 -53 c-131
-65 -904 -460 -1276 -651 -206 -105 -252 -114 -328 -64 -69 46 -92 99 -91 219
0 112 6 130 114 355 164 338 160 329 160 382 0 84 -31 116 -196 198 -159 79
-386 213 -489 288 -38 28 -92 66 -120 85 -82 58 -273 223 -385 333 -187 183
-409 454 -521 636 -114 183 -136 210 -187 237 -40 21 -94 20 -135 0 -18 -9
-81 -46 -140 -83 -59 -36 -118 -72 -130 -79 -12 -7 -35 -22 -52 -32 -16 -11
-39 -24 -50 -30 -11 -6 -32 -18 -47 -28 -36 -23 -362 -224 -391 -240 -12 -7
-34 -21 -49 -30 -51 -32 -319 -197 -356 -219 -51 -30 -76 -28 -106 7 -37 45
-41 85 -16 176 12 42 26 85 30 93 4 9 36 75 71 146 35 72 75 148 89 170 14 22
30 49 37 60 56 93 137 220 208 324 82 119 85 126 85 180 0 60 -5 70 -141 266
-31 44 -69 102 -85 128 -16 27 -37 61 -46 75 -10 15 -21 34 -25 42 -4 8 -17
30 -30 49 -46 68 -172 338 -193 415 -25 90 -21 131 15 170 26 29 66 34 102 13
25 -13 299 -182 341 -209 15 -10 34 -21 42 -25 8 -3 44 -25 80 -47 36 -23 74
-46 85 -53 20 -12 283 -174 330 -203 352 -217 345 -214 409 -214 76 -1 110 22
170 114 24 36 68 104 99 152 169 259 458 586 698 789 148 125 174 146 204 164
17 11 64 45 105 75 106 79 330 212 495 293 153 75 177 93 207 151 29 56 20 95
-53 238 -228 448 -233 461 -233 588 -1 120 22 173 91 219 50 34 83 38 147 19z"/>
<path d="M7075 5459 c-326 -54 -506 -409 -359 -706 99 -197 308 -302 530 -265
196 33 363 200 396 396 18 108 -6 267 -49 317 -7 8 -13 19 -13 24 0 11 -68 93
-105 127 -49 44 -163 95 -242 107 -80 12 -87 12 -158 0z m137 -339 c23 -7 48
-25 67 -49 27 -33 31 -47 31 -97 0 -112 -85 -179 -194 -154 -113 25 -155 180
-71 262 48 47 95 58 167 38z"/>
</g>
</svg>
