<?xml version="1.0" standalone="no"?>
<!DOCTYPE svg PUBLIC "-//W3C//DTD SVG 20010904//EN"
 "http://www.w3.org/TR/2001/REC-SVG-20010904/DTD/svg10.dtd">
<svg version="1.0" xmlns="http://www.w3.org/2000/svg"
 width="900.000000pt" height="900.000000pt" viewBox="0 0 900.000000 900.000000"
 preserveAspectRatio="xMidYMid meet">
<metadata>
Created by potrace 1.10, written by Peter Selinger 2001-2011
</metadata>
<g transform="translate(0.000000,900.000000) scale(0.100000,-0.100000)"
fill="#ffffff" stroke="none">
<path d="M4477 8982 c-4 -16 -18 -20 -108 -25 -178 -10 -294 -70 -475 -244
-139 -133 -270 -317 -379 -528 -14 -27 -30 -57 -35 -65 -5 -8 -21 -42 -35 -75
-15 -33 -36 -80 -47 -105 -35 -77 -48 -109 -95 -235 -8 -22 -21 -55 -29 -73
-8 -18 -14 -41 -14 -50 0 -10 -4 -22 -9 -27 -6 -6 -14 -28 -20 -50 -9 -39 -15
-60 -41 -135 -7 -19 -15 -51 -19 -70 -4 -19 -13 -45 -19 -57 -7 -12 -12 -32
-12 -44 0 -11 -7 -42 -14 -68 -31 -96 -65 -235 -76 -301 -4 -25 -12 -65 -18
-90 -35 -149 -42 -181 -42 -202 0 -12 -6 -52 -15 -88 -21 -97 -45 -241 -45
-277 0 -18 -7 -58 -15 -90 -8 -31 -15 -82 -15 -113 -1 -30 -7 -84 -15 -120 -8
-36 -14 -92 -15 -125 0 -33 -5 -89 -11 -125 -5 -35 -11 -103 -12 -150 -2 -47
-6 -91 -10 -97 -6 -9 -30 -1 -90 29 -45 23 -95 47 -112 54 -16 7 -46 20 -67
28 -20 9 -44 16 -53 16 -9 0 -26 5 -38 12 -12 6 -38 15 -57 19 -19 4 -48 12
-65 17 -53 18 -169 42 -201 42 -17 0 -50 6 -72 14 -27 10 -97 15 -214 18 -197
3 -204 1 -258 -74 -52 -72 -39 -144 42 -233 86 -94 221 -287 293 -420 21 -38
47 -83 57 -100 10 -16 20 -37 24 -45 3 -8 9 -22 14 -30 13 -21 56 -110 86
-177 14 -32 38 -85 53 -118 48 -103 61 -135 61 -150 0 -7 6 -26 14 -42 8 -15
22 -48 31 -73 9 -25 23 -58 31 -73 8 -16 14 -36 14 -46 0 -9 6 -25 14 -36 7
-11 16 -33 18 -50 3 -16 11 -46 18 -65 29 -79 38 -108 55 -165 30 -103 47
-159 60 -195 17 -46 34 -114 45 -172 5 -26 13 -56 19 -67 6 -11 11 -34 11 -51
0 -17 7 -47 15 -67 8 -19 15 -45 15 -57 0 -11 6 -50 14 -86 22 -96 37 -178 46
-240 4 -30 13 -82 19 -115 7 -33 18 -91 26 -130 7 -38 19 -97 25 -130 7 -33
16 -87 20 -120 5 -33 13 -73 19 -88 6 -16 11 -44 11 -63 0 -20 5 -44 11 -55 6
-11 14 -41 19 -67 14 -73 31 -134 46 -165 8 -16 14 -39 14 -51 0 -12 7 -31 15
-42 8 -10 15 -26 15 -34 0 -8 14 -44 31 -80 17 -36 38 -81 47 -100 9 -19 29
-51 44 -71 15 -20 28 -40 28 -43 0 -10 40 -65 80 -110 95 -106 175 -172 248
-205 12 -6 22 -14 22 -18 0 -5 2 -145 3 -313 3 -333 2 -320 70 -459 21 -42 57
-90 103 -136 116 -116 251 -170 374 -148 l44 8 -22 21 c-12 11 -71 47 -130 79
-59 32 -126 74 -149 92 -55 45 -109 125 -141 209 -25 66 -26 79 -32 344 -4
230 -8 281 -23 314 -10 23 -76 96 -166 185 -201 198 -256 286 -358 581 -40
115 -108 423 -158 715 -47 279 -89 499 -121 635 -32 139 -85 343 -99 378 -7
20 -30 91 -50 157 -200 652 -451 1178 -739 1546 -81 103 -94 147 -50 175 21
14 42 16 132 11 155 -9 346 -41 462 -77 14 -4 45 -13 70 -20 73 -20 163 -52
193 -67 58 -29 178 -63 203 -57 13 3 49 33 78 66 47 52 55 67 65 121 11 63 41
346 46 427 1 25 5 61 9 80 3 19 17 109 31 200 50 323 89 527 146 770 15 63 57
220 85 315 13 44 30 105 38 135 9 30 29 93 46 140 17 47 41 117 55 155 110
321 289 649 465 859 124 147 197 203 417 315 l193 100 168 -86 c242 -124 269
-143 405 -291 97 -106 166 -204 259 -368 111 -195 156 -297 278 -629 24 -64
65 -196 96 -305 13 -47 31 -107 39 -135 25 -84 54 -204 81 -335 14 -68 28
-128 30 -132 3 -4 11 -45 19 -91 8 -45 19 -107 25 -137 6 -30 14 -84 19 -120
5 -36 19 -123 30 -195 23 -149 47 -349 61 -515 16 -188 24 -212 86 -279 30
-32 65 -62 79 -65 24 -6 145 28 202 57 82 42 339 112 523 143 58 9 153 18 212
18 98 1 109 -1 130 -21 21 -21 21 -25 9 -60 -8 -21 -33 -60 -55 -88 -110 -132
-204 -276 -304 -465 -24 -47 -50 -94 -57 -105 -17 -28 -195 -423 -195 -433 0
-5 -12 -37 -26 -73 -88 -216 -223 -630 -279 -859 -19 -80 -40 -161 -45 -181
-14 -49 -73 -361 -85 -449 -3 -19 -10 -53 -15 -75 -9 -38 -43 -227 -53 -290
-6 -36 -33 -172 -47 -235 -6 -25 -14 -65 -19 -90 -32 -157 -141 -431 -218
-549 -39 -59 -101 -130 -199 -226 -87 -86 -149 -155 -160 -180 -15 -34 -19
-80 -24 -315 -6 -263 -7 -278 -32 -342 -31 -83 -88 -168 -142 -212 -23 -18
-89 -59 -148 -91 -59 -32 -118 -68 -130 -79 l-22 -21 44 -8 c122 -22 259 33
374 147 46 47 82 95 103 137 68 139 67 126 70 459 1 168 3 308 3 313 0 4 10
12 23 18 72 33 152 99 247 205 35 40 80 100 80 107 0 2 20 35 45 73 25 37 45
73 45 78 0 6 13 38 28 71 50 106 62 135 62 158 0 12 7 31 15 41 8 11 15 29 15
40 0 10 7 44 16 75 8 31 22 79 29 106 8 28 16 66 18 85 6 43 23 134 43 217 8
34 14 75 14 91 0 16 7 49 15 72 8 23 15 59 15 80 0 20 7 59 15 86 8 27 15 66
15 86 0 20 5 49 11 65 6 15 14 55 19 88 11 85 29 173 46 225 8 25 14 58 14 73
0 16 5 37 11 48 6 11 14 41 19 67 11 59 29 126 45 172 7 19 21 62 30 95 10 33
24 75 31 93 8 18 14 41 14 52 0 11 6 34 14 52 21 51 38 100 43 128 2 14 11 39
18 55 7 17 20 49 29 73 41 108 49 129 62 154 8 14 14 34 14 45 0 10 7 27 15
37 8 11 15 30 15 42 0 12 7 27 15 34 8 7 15 17 15 24 0 6 13 38 29 71 27 56
68 144 91 197 6 13 26 50 45 83 18 33 46 83 60 110 14 28 34 62 43 76 9 15 35
55 56 90 48 77 153 219 204 274 81 89 94 161 42 233 -54 75 -61 77 -258 74
-117 -3 -187 -8 -214 -18 -22 -8 -58 -14 -79 -14 -21 0 -49 -4 -64 -10 -14 -5
-49 -14 -78 -19 -29 -5 -67 -14 -84 -20 -82 -28 -100 -33 -137 -42 -45 -11
-118 -43 -228 -99 -56 -29 -79 -36 -85 -27 -4 6 -8 50 -10 97 -1 47 -7 115
-12 150 -6 36 -11 92 -11 125 -1 33 -7 89 -15 125 -8 36 -15 90 -15 120 0 30
-7 80 -15 110 -8 30 -15 71 -15 90 0 39 -23 181 -45 280 -9 36 -15 76 -15 88
0 21 -7 53 -42 202 -6 25 -14 65 -18 90 -10 61 -29 139 -75 305 -8 28 -16 61
-19 75 -2 14 -9 40 -15 58 -26 78 -37 113 -71 227 -10 37 -42 128 -73 210 -50
135 -60 158 -95 235 -21 48 -65 145 -76 170 -4 8 -22 42 -41 75 -19 33 -39 71
-45 85 -19 42 -162 252 -219 320 -107 129 -250 252 -351 304 -93 47 -131 57
-237 63 -92 5 -103 8 -103 24 0 24 -26 25 -33 1z"/>
<path d="M4118 8566 c-103 -37 -270 -236 -364 -433 -54 -114 -50 -146 22 -215
50 -47 80 -58 161 -58 81 0 132 26 185 94 36 47 59 106 98 256 12 47 28 105
36 129 28 90 15 154 -42 208 -39 37 -44 38 -96 19z m82 -78 c0 -17 -6 -39 -13
-47 -12 -14 -30 -58 -72 -171 -14 -39 -32 -104 -45 -165 -16 -75 -28 -117 -37
-126 -12 -12 -223 -13 -235 -1 -10 10 18 59 127 224 22 33 45 67 50 76 6 9 46
61 90 115 44 55 84 105 90 113 5 8 18 14 27 14 13 0 18 -8 18 -32z"/>
<path d="M4788 8569 c-10 -5 -18 -17 -18 -24 0 -8 -7 -15 -16 -15 -19 0 -44
-59 -44 -106 0 -20 9 -69 20 -108 11 -39 28 -98 37 -131 47 -175 82 -240 156
-296 25 -18 48 -24 104 -27 95 -5 133 9 188 70 59 66 61 103 6 208 -141 275
-348 480 -433 429z m36 -63 c6 -7 48 -59 94 -114 45 -56 82 -104 82 -107 0 -3
18 -29 39 -58 21 -29 51 -74 65 -102 15 -27 41 -69 58 -93 23 -31 29 -45 21
-53 -13 -13 -223 -13 -236 0 -9 9 -21 51 -37 126 -13 61 -31 126 -45 165 -42
113 -60 157 -72 171 -19 23 -17 79 3 79 9 0 22 -6 28 -14z"/>
<path d="M4412 8321 c-53 -53 -91 -132 -112 -234 -15 -73 -9 -97 37 -148 93
-103 213 -105 302 -3 58 66 60 90 19 226 -34 114 -110 208 -168 208 -21 0 -42
-13 -78 -49z m112 -66 c4 -27 12 -59 16 -70 5 -11 12 -38 15 -60 4 -22 11 -45
16 -51 5 -6 12 -32 15 -58 l7 -46 -103 0 -103 0 7 46 c3 26 10 52 16 58 5 7
12 32 16 56 4 25 10 50 14 55 4 6 11 36 15 68 6 56 8 58 33 55 24 -3 28 -9 36
-53z"/>
<path d="M3709 7752 c-112 -14 -184 -95 -248 -282 -65 -191 -74 -222 -79 -297
l-5 -72 54 -56 c51 -53 57 -56 124 -67 39 -6 120 -8 182 -6 129 6 156 18 223
99 l42 49 35 203 c42 249 41 278 -17 347 -23 28 -54 57 -69 65 -32 16 -165 26
-242 17z m264 -118 c3 -3 -1 -24 -9 -46 -8 -22 -14 -53 -14 -69 0 -15 -7 -54
-15 -86 -8 -31 -15 -76 -15 -99 0 -22 -5 -55 -11 -72 -6 -17 -14 -61 -17 -98
l-7 -66 -207 -2 c-132 -1 -209 2 -212 9 -2 5 1 21 7 35 5 14 18 48 29 75 11
28 24 66 28 85 4 19 14 51 20 70 7 19 18 51 25 70 7 19 18 51 24 70 7 19 16
50 21 68 15 61 17 62 190 62 86 0 159 -3 163 -6z"/>
<path d="M4360 7749 c-34 -7 -57 -21 -98 -61 -29 -29 -58 -60 -62 -69 -20 -36
-70 -351 -70 -441 0 -60 3 -71 33 -110 70 -91 126 -105 396 -96 158 5 185 13
232 65 69 77 73 121 33 363 -34 210 -37 219 -103 284 -51 51 -63 57 -116 66
-71 12 -183 11 -245 -1z m315 -156 c3 -27 10 -67 15 -90 6 -23 10 -57 10 -75
0 -34 24 -173 41 -243 6 -22 11 -51 12 -64 l2 -24 -265 0 c-235 0 -265 2 -268
16 -2 9 2 26 9 39 7 12 15 49 20 83 4 33 12 92 19 130 11 68 22 144 36 233 l6
42 178 0 179 0 6 -47z"/>
<path d="M5090 7751 c-59 -9 -80 -21 -129 -77 -53 -60 -58 -94 -37 -229 9 -60
23 -151 31 -200 17 -113 25 -134 71 -184 65 -73 94 -84 218 -89 61 -2 142 1
180 6 59 10 75 17 108 49 48 46 68 83 70 126 1 34 -42 208 -68 280 -9 23 -25
67 -36 97 -28 75 -83 154 -130 186 -55 39 -162 52 -278 35z m250 -126 c6 -8
16 -29 20 -47 5 -18 14 -49 21 -68 6 -19 17 -51 24 -70 7 -19 18 -51 25 -70 6
-19 16 -51 20 -70 10 -41 35 -113 54 -154 8 -16 12 -34 10 -40 -3 -8 -70 -11
-212 -10 l-207 1 -6 65 c-4 35 -12 82 -18 104 -6 21 -11 57 -11 80 0 22 -7 63
-15 90 -8 27 -15 63 -15 80 0 17 -6 50 -14 72 -8 22 -12 43 -9 46 4 3 77 6
163 6 127 0 160 -3 170 -15z"/>
<path d="M3480 6874 c-14 -2 -39 -7 -57 -10 -39 -6 -127 -83 -153 -134 -11
-21 -29 -89 -41 -152 -11 -62 -25 -133 -30 -158 -16 -82 -22 -148 -15 -175 10
-41 102 -133 145 -145 47 -13 385 -13 432 0 48 13 134 104 148 156 16 56 43
401 36 445 -8 49 -64 119 -117 149 -39 22 -56 24 -183 26 -77 1 -151 0 -165
-2z m362 -132 c6 -6 6 -23 -1 -48 -6 -22 -11 -61 -11 -89 0 -27 -7 -90 -15
-140 -8 -49 -15 -127 -15 -172 0 -46 -3 -83 -7 -83 -5 -1 -120 -1 -258 -2
-187 0 -250 3 -253 12 -2 6 6 55 18 108 29 132 47 223 61 312 19 127 -7 115
249 113 128 0 226 -5 232 -11z"/>
<path d="M4237 6866 c-33 -9 -63 -28 -94 -57 -78 -75 -78 -77 -110 -445 -9
-105 1 -138 55 -197 26 -27 61 -56 79 -63 41 -18 595 -20 640 -3 41 15 121 97
134 137 12 36 8 141 -13 342 -12 123 -35 176 -101 237 -32 30 -58 44 -96 52
-73 15 -433 13 -494 -3z m552 -120 c4 -3 11 -45 15 -93 3 -48 10 -144 15 -213
5 -69 15 -139 21 -157 6 -17 10 -42 8 -53 l-3 -22 -355 0 -355 0 -3 22 c-2 11
2 36 8 53 6 18 16 88 21 157 18 258 22 295 29 305 8 10 582 11 599 1z"/>
<path d="M5208 6871 c-52 -11 -113 -54 -145 -103 -27 -40 -28 -46 -27 -162 2
-142 27 -344 48 -383 23 -44 99 -112 136 -123 45 -13 384 -13 431 0 39 11 100
64 130 114 21 35 25 102 8 156 -5 19 -12 49 -14 65 -7 63 -46 242 -62 282 -17
47 -95 127 -140 144 -34 13 -314 21 -365 10z m393 -138 c4 -10 12 -52 18 -93
14 -89 32 -180 61 -312 12 -53 20 -102 18 -108 -3 -9 -66 -12 -253 -12 -138 1
-253 1 -257 2 -5 0 -8 37 -8 83 0 45 -7 123 -15 172 -8 50 -15 113 -15 140 0
28 -5 67 -11 88 -7 25 -7 42 -1 50 8 9 72 11 234 10 204 -2 223 -4 229 -20z"/>
<path d="M3254 5976 c-37 -16 -126 -116 -137 -154 -4 -15 -14 -88 -22 -162 -8
-74 -17 -156 -21 -182 -12 -82 2 -131 51 -186 73 -81 82 -83 340 -82 124 0
236 5 249 10 38 14 105 79 128 124 18 35 23 70 31 247 5 114 7 218 3 232 -10
43 -85 127 -129 148 -37 16 -67 19 -252 18 -154 0 -218 -3 -241 -13z m514
-142 c2 -21 -1 -93 -8 -159 -6 -66 -12 -169 -13 -228 0 -60 -4 -110 -9 -113
-11 -7 -559 -7 -566 1 -3 3 0 21 7 41 7 19 17 88 21 152 5 64 14 146 20 182 6
36 10 81 10 100 -1 19 -2 41 -1 47 1 10 63 13 259 15 141 2 262 3 267 2 6 0
12 -18 13 -40z"/>
<path d="M4135 5971 c-22 -10 -57 -36 -77 -57 -64 -67 -69 -92 -75 -335 -6
-212 -5 -218 16 -253 13 -20 42 -52 66 -71 40 -34 48 -36 156 -46 134 -13 602
-5 644 11 44 17 123 106 131 148 4 20 4 125 1 233 -6 219 -11 241 -74 309 -70
79 -76 80 -433 80 -286 0 -319 -2 -355 -19z m746 -336 c4 -126 10 -247 14
-267 6 -29 4 -38 -6 -38 -148 -3 -803 0 -806 4 -3 2 0 35 6 73 6 37 11 154 12
258 0 105 3 193 6 198 2 4 176 6 386 5 l382 -3 6 -230z"/>
<path d="M5229 5970 c-20 -11 -55 -40 -77 -65 -53 -60 -58 -102 -44 -339 7
-136 14 -190 27 -216 20 -40 99 -118 133 -131 12 -5 123 -9 247 -9 191 -1 230
1 260 16 47 22 122 108 129 148 6 33 -15 277 -35 404 -11 68 -16 78 -63 129
-28 31 -64 62 -81 69 -21 8 -97 12 -245 13 -195 0 -218 -1 -251 -19z m520
-105 c2 -3 3 -29 2 -58 -1 -29 3 -77 9 -107 6 -30 15 -108 20 -172 4 -64 14
-133 21 -152 7 -20 10 -38 7 -41 -7 -8 -555 -8 -566 -1 -5 3 -9 59 -10 124 -1
66 -6 160 -12 208 -10 91 -13 197 -6 205 6 5 529 -1 535 -6z"/>
<path d="M2159 5301 c-58 -32 -89 -75 -89 -125 0 -42 55 -168 115 -266 75
-123 289 -608 364 -825 11 -33 33 -98 50 -145 16 -47 41 -125 56 -175 15 -49
35 -117 46 -150 35 -114 94 -342 104 -405 4 -25 13 -70 21 -100 14 -55 48
-238 64 -338 5 -29 13 -74 19 -100 10 -45 30 -154 52 -287 6 -33 17 -89 24
-125 8 -36 21 -101 30 -145 63 -305 188 -560 348 -711 247 -235 557 -326 1112
-326 497 0 838 82 1063 256 141 108 256 271 336 472 64 163 102 333 206 919
50 280 100 534 115 585 7 25 23 83 35 130 12 47 30 112 40 145 53 175 93 304
104 335 26 69 38 106 46 135 45 164 237 595 425 954 84 160 86 194 21 256 -65
63 -117 67 -267 24 -37 -11 -100 -33 -140 -50 -41 -17 -99 -41 -129 -54 -93
-38 -299 -162 -419 -253 -132 -100 -333 -290 -435 -411 -294 -348 -564 -820
-731 -1276 -20 -55 -40 -109 -45 -120 -17 -41 -89 -270 -126 -400 -23 -79 -45
-124 -65 -130 -26 -8 -56 10 -74 46 -15 28 -24 56 -76 234 -73 251 -203 589
-295 770 -14 28 -48 95 -76 150 -164 320 -405 654 -643 891 -84 83 -178 171
-210 195 -224 171 -406 278 -598 353 -211 82 -316 101 -378 67z m17 -69 c12
-11 136 -52 157 -52 16 0 68 -20 119 -46 14 -8 35 -14 45 -14 11 0 28 -7 39
-15 10 -8 27 -15 36 -15 9 0 39 -13 65 -28 26 -16 68 -38 93 -51 71 -35 134
-71 140 -79 6 -8 48 -38 125 -90 144 -97 375 -331 534 -542 64 -85 120 -162
124 -170 9 -21 27 -49 58 -90 14 -19 29 -42 32 -50 4 -8 16 -28 26 -45 11 -16
31 -50 44 -75 14 -25 34 -61 45 -80 39 -66 167 -335 196 -410 17 -42 30 -73
61 -145 7 -16 15 -39 18 -50 3 -11 15 -45 27 -75 12 -30 25 -69 29 -85 4 -17
13 -40 19 -52 7 -12 12 -31 12 -42 0 -11 6 -35 14 -53 7 -18 21 -60 30 -93 10
-33 24 -80 32 -105 8 -25 14 -55 14 -66 0 -33 36 -107 65 -134 57 -54 172 -54
228 -1 31 29 67 101 67 135 0 11 6 41 14 66 8 25 22 72 32 105 9 33 23 75 30
93 8 18 14 42 14 53 0 11 5 30 12 42 6 12 15 35 19 52 4 16 17 55 29 85 12 30
24 64 27 75 3 11 12 36 21 55 19 43 35 81 58 140 20 53 133 294 154 330 5 8
11 22 14 30 4 8 20 38 37 65 16 28 37 64 45 80 20 39 31 57 79 130 48 74 62
96 71 115 16 32 220 298 273 355 142 153 299 298 386 357 78 52 120 82 125 90
6 8 69 44 140 79 25 13 67 35 93 51 26 15 56 28 66 28 9 0 26 7 37 15 10 8 27
15 37 15 11 0 31 6 45 14 51 26 103 46 119 46 21 0 145 41 158 52 5 4 17 8 27
8 15 0 17 -5 12 -27 -4 -16 -13 -35 -21 -43 -20 -22 -83 -108 -83 -114 0 -2
-20 -39 -45 -80 -25 -42 -45 -83 -45 -90 0 -7 -7 -19 -15 -26 -8 -7 -15 -17
-15 -23 0 -6 -28 -67 -61 -136 -34 -69 -67 -139 -74 -156 -7 -16 -21 -48 -31
-70 -24 -55 -40 -93 -57 -140 -38 -102 -50 -132 -63 -158 -8 -16 -14 -39 -14
-51 0 -12 -5 -27 -11 -33 -6 -6 -14 -26 -19 -44 -4 -19 -14 -50 -21 -69 -6
-19 -17 -51 -24 -70 -7 -19 -20 -62 -30 -95 -10 -33 -23 -78 -30 -100 -7 -22
-21 -67 -30 -100 -9 -33 -22 -76 -28 -95 -6 -19 -14 -53 -18 -75 -9 -48 -27
-117 -42 -165 -6 -19 -14 -55 -17 -80 -4 -25 -12 -65 -18 -90 -13 -56 -33
-158 -42 -225 -4 -27 -13 -77 -20 -110 -40 -204 -61 -318 -70 -380 -9 -62 -28
-157 -41 -210 -6 -22 -14 -58 -18 -80 -14 -68 -33 -139 -47 -172 -8 -17 -14
-38 -14 -47 0 -9 -4 -24 -9 -34 -6 -9 -20 -39 -32 -67 -55 -126 -101 -198
-183 -283 -51 -53 -203 -162 -228 -162 -7 0 -22 -7 -32 -15 -11 -8 -30 -15
-43 -15 -12 0 -37 -6 -55 -14 -81 -34 -260 -70 -403 -81 -296 -24 -375 -23
-670 4 -172 16 -335 56 -455 110 -69 32 -196 121 -246 173 -80 83 -127 156
-178 273 -10 22 -24 53 -32 68 -8 16 -14 35 -14 44 0 8 -6 29 -14 46 -14 33
-33 104 -47 172 -4 22 -12 58 -18 80 -13 53 -32 148 -41 210 -9 62 -30 176
-70 380 -7 33 -16 83 -20 110 -9 67 -29 169 -42 225 -6 25 -14 65 -18 90 -3
25 -11 61 -17 80 -15 48 -33 117 -42 165 -4 22 -12 56 -18 75 -6 19 -19 62
-28 95 -9 33 -23 78 -30 100 -6 22 -20 67 -30 100 -9 33 -23 76 -30 95 -29 82
-37 107 -45 135 -10 36 -28 89 -46 130 -12 30 -34 87 -61 160 -8 22 -21 55
-29 73 -7 18 -20 47 -27 65 -27 63 -45 104 -106 228 -33 69 -61 130 -61 136 0
6 -7 16 -15 23 -8 7 -15 19 -15 26 0 7 -20 48 -45 90 -25 41 -45 78 -45 80 0
5 -57 84 -80 111 -9 11 -30 58 -30 69 0 7 36 4 46 -4z"/>
<path d="M3495 5105 c-5 -2 -27 -6 -48 -10 -69 -11 -158 -114 -140 -162 37
-101 326 -383 392 -383 19 0 82 63 108 108 25 41 28 58 31 166 l4 121 -33 49
c-19 27 -52 62 -75 78 -36 26 -50 29 -135 33 -52 2 -98 2 -104 0z m141 -120
c77 5 92 4 97 -9 4 -9 1 -54 -5 -100 -7 -61 -8 -106 0 -157 6 -40 9 -76 6 -81
-8 -13 -54 -9 -54 5 0 31 -185 229 -267 285 -35 24 -52 60 -34 71 6 4 46 1 89
-7 50 -9 108 -11 168 -7z"/>
<path d="M4114 5097 c-43 -17 -107 -74 -135 -122 -24 -39 -24 -44 -24 -315 l0
-275 35 -48 c19 -27 54 -60 78 -74 43 -25 48 -26 295 -31 139 -2 315 -1 391 3
l139 7 58 57 c80 78 83 91 76 393 -5 231 -7 250 -27 287 -25 43 -94 106 -135
121 -39 15 -711 12 -751 -3z m798 -417 c2 -168 2 -308 0 -312 -2 -5 -192 -8
-422 -8 -230 0 -420 3 -422 8 -2 4 -2 144 0 312 l4 305 418 0 418 0 4 -305z"/>
<path d="M5302 5102 c-43 -9 -97 -54 -133 -110 -27 -43 -29 -52 -29 -151 0
-59 5 -123 10 -143 11 -40 90 -133 120 -143 34 -11 103 36 211 142 123 121
179 196 186 251 5 35 1 44 -33 82 -22 24 -55 50 -74 58 -38 16 -205 25 -258
14z m308 -119 c0 -9 -14 -27 -31 -42 -146 -125 -279 -267 -279 -298 0 -14 -46
-18 -54 -5 -3 5 0 41 6 81 8 51 7 96 0 157 -6 46 -9 90 -6 97 3 10 40 13 142
14 75 0 151 5 167 10 36 12 55 7 55 -14z"/>
<path d="M4208 4131 c-70 -14 -158 -102 -158 -158 0 -35 27 -103 134 -331 41
-89 88 -193 102 -230 56 -142 145 -252 204 -252 35 0 100 56 140 121 17 28 51
99 75 157 37 92 78 183 201 449 13 28 24 65 24 81 0 60 -87 148 -162 163 -52
10 -508 10 -560 0z m642 -127 c0 -7 -15 -34 -33 -61 -38 -57 -146 -274 -194
-390 -7 -18 -19 -48 -27 -65 -8 -18 -17 -42 -19 -53 -3 -11 -13 -40 -22 -65
-10 -25 -22 -65 -29 -90 -8 -35 -16 -46 -34 -48 -12 -2 -24 3 -26 10 -2 7 -13
42 -24 78 -32 103 -48 147 -87 235 -9 22 -23 54 -30 70 -35 83 -134 276 -162
318 -18 27 -33 54 -33 61 0 8 95 11 360 11 265 0 360 -3 360 -11z"/>
<path d="M3734 1012 c-21 -16 -52 -46 -69 -68 l-30 -39 -3 -171 c-4 -203 7
-253 72 -341 81 -110 148 -153 266 -172 39 -7 250 -11 522 -11 497 0 570 6
653 55 56 33 135 121 171 193 l29 57 0 196 0 197 -40 47 c-22 26 -56 57 -77
68 l-36 22 -119 -19 c-395 -60 -821 -60 -1153 -1 -119 21 -141 19 -186 -13z
m116 -97 c36 -10 94 -21 130 -26 36 -4 94 -12 130 -18 36 -6 207 -11 380 -11
173 0 344 5 380 11 36 6 94 14 130 18 68 8 183 37 212 52 11 6 19 5 24 -2 3
-6 6 -96 5 -200 -2 -164 -5 -195 -22 -233 -25 -58 -62 -101 -113 -134 l-41
-27 -575 0 -575 0 -41 27 c-51 33 -88 76 -113 134 -17 38 -20 69 -22 233 -1
104 2 194 5 200 5 7 13 8 24 2 9 -5 46 -17 82 -26z"/>
</g>
</svg>
