<?xml version="1.0" standalone="no"?>
<!DOCTYPE svg PUBLIC "-//W3C//DTD SVG 20010904//EN"
 "http://www.w3.org/TR/2001/REC-SVG-20010904/DTD/svg10.dtd">
<svg version="1.0" xmlns="http://www.w3.org/2000/svg"
 width="300.000000pt" height="300.000000pt" viewBox="0 0 300.000000 300.000000"
 preserveAspectRatio="xMidYMid meet">
<metadata>
Created by potrace 1.10, written by Peter Selinger 2001-2011
</metadata>
<g transform="translate(0.000000,300.000000) scale(0.100000,-0.100000)"
fill="#ffffff" stroke="none">
<path d="M162 2983 c-23 -8 -62 -34 -86 -59 -80 -80 -76 -22 -76 -1049 0
-1027 -4 -969 76 -1049 75 -76 77 -76 576 -76 241 0 438 -1 438 -2 0 -2 -18
-100 -40 -218 -22 -118 -40 -218 -40 -222 0 -5 -53 -8 -119 -8 -106 0 -121 -2
-151 -22 -55 -38 -75 -73 -74 -129 1 -53 19 -87 68 -123 27 -21 36 -21 766
-21 730 0 739 0 766 21 49 36 67 70 68 123 1 56 -19 91 -74 129 -30 20 -45 22
-151 22 -66 0 -119 3 -119 8 0 4 -18 104 -40 222 -22 118 -40 216 -40 218 0 1
197 2 438 2 499 0 501 0 576 76 80 80 76 22 76 1049 0 1027 4 969 -76 1049
-81 82 23 76 -1428 75 -1123 0 -1297 -3 -1334 -16z m2658 -104 c21 -12 47 -38
59 -59 21 -38 21 -42 21 -804 l0 -766 -1400 0 -1400 0 0 766 c0 761 0 767 21
804 12 20 38 47 58 58 l36 22 1284 0 1283 0 38 -21z m80 -1820 c0 -108 -20
-154 -80 -188 l-38 -21 -1282 0 -1282 0 -38 21 c-60 34 -80 80 -80 188 l0 91
1400 0 1400 0 0 -91z m-1090 -316 c0 -5 18 -105 40 -223 22 -118 40 -216 40
-217 0 -2 -35 -3 -77 -3 -57 0 -81 -4 -95 -17 -22 -20 -23 -46 -2 -67 13 -14
50 -16 253 -16 228 0 239 -1 257 -21 17 -19 17 -23 3 -47 l-15 -27 -714 0
-714 0 -15 27 c-14 24 -14 28 3 47 19 20 28 21 357 21 294 0 340 2 353 16 21
20 20 43 -1 66 -14 16 -34 18 -195 18 -98 0 -178 1 -178 3 0 1 18 99 40 217
22 118 40 218 40 223 0 4 140 7 310 7 171 0 310 -3 310 -7z"/>
<path d="M1716 2784 c-14 -14 -16 -92 -16 -709 0 -617 2 -695 16 -709 14 -14
76 -16 534 -16 458 0 520 2 534 16 14 14 16 92 16 709 0 617 -2 695 -16 709
-14 14 -76 16 -534 16 -458 0 -520 -2 -534 -16z m984 -709 l0 -625 -450 0
-450 0 0 625 0 625 450 0 450 0 0 -625z"/>
<path d="M1917 2532 c-21 -23 -22 -46 -1 -66 23 -24 345 -24 368 0 21 21 20
47 -2 67 -16 14 -44 17 -184 17 -147 0 -167 -2 -181 -18z"/>
<path d="M1916 2334 c-9 -8 -16 -24 -16 -34 0 -10 7 -26 16 -34 13 -14 58 -16
334 -16 276 0 321 2 334 16 9 8 16 24 16 34 0 10 -7 26 -16 34 -13 14 -58 16
-334 16 -276 0 -321 -2 -334 -16z"/>
<path d="M1916 2134 c-21 -21 -20 -47 2 -67 16 -14 44 -17 184 -17 147 0 167
2 181 18 22 24 21 45 -1 65 -27 24 -342 25 -366 1z"/>
<path d="M1916 1934 c-21 -21 -20 -47 2 -67 16 -15 55 -17 334 -17 292 0 316
1 331 18 21 23 22 46 1 66 -13 14 -58 16 -334 16 -276 0 -321 -2 -334 -16z"/>
<path d="M1916 1734 c-21 -21 -20 -47 2 -67 16 -14 44 -17 184 -17 147 0 167
2 181 18 22 24 21 45 -1 65 -27 24 -342 25 -366 1z"/>
<path d="M967 2732 c-15 -16 -17 -53 -17 -310 0 -251 2 -293 16 -306 13 -14
55 -16 308 -16 271 0 294 1 309 18 21 23 21 66 2 157 -47 225 -235 413 -460
460 -95 20 -138 19 -158 -3z m188 -109 c171 -52 302 -203 338 -390 l7 -33
-225 0 -225 0 0 225 0 225 28 -6 c15 -3 50 -13 77 -21z"/>
<path d="M670 2534 c-265 -57 -470 -311 -470 -584 0 -324 276 -600 600 -600
276 0 528 205 585 475 20 95 19 138 -3 158 -16 15 -50 17 -275 17 l-257 0 0
258 c0 238 -1 260 -18 275 -22 20 -73 21 -162 1z m80 -343 c0 -223 2 -262 16
-275 13 -14 52 -16 275 -16 l259 0 -6 -27 c-47 -215 -179 -356 -379 -408 -165
-42 -339 8 -466 134 -158 158 -192 376 -91 581 35 72 142 179 212 213 46 22
143 54 173 56 4 1 7 -116 7 -258z"/>
<path d="M1367 1032 c-21 -23 -22 -46 -1 -66 23 -23 245 -23 268 0 21 21 20
47 -2 67 -15 14 -41 17 -134 17 -99 0 -117 -3 -131 -18z"/>
</g>
</svg>
