<?xml version="1.0" standalone="no"?>
<!DOCTYPE svg PUBLIC "-//W3C//DTD SVG 20010904//EN"
 "http://www.w3.org/TR/2001/REC-SVG-20010904/DTD/svg10.dtd">
<svg version="1.0" xmlns="http://www.w3.org/2000/svg"
 width="900.000000pt" height="900.000000pt" viewBox="0 0 900.000000 900.000000"
 preserveAspectRatio="xMidYMid meet">
<metadata>
Created by potrace 1.10, written by Peter Selinger 2001-2011
</metadata>
<g transform="translate(0.000000,900.000000) scale(0.100000,-0.100000)"
fill="#ffffff" stroke="none">
<path d="M2860 8073 c-93 -33 -197 -119 -236 -198 -8 -16 -80 -224 -159 -460
-79 -237 -152 -446 -161 -465 -29 -58 -115 -135 -190 -172 l-69 -33 -650 -6
c-682 -6 -684 -6 -811 -53 -100 -36 -267 -147 -340 -224 -75 -80 -166 -224
-200 -317 -45 -123 -44 -43 -44 -2330 0 -2287 -1 -2207 44 -2330 36 -100 133
-249 212 -329 80 -79 229 -176 329 -212 22 -9 80 -24 129 -35 87 -19 162 -19
3776 -19 3614 0 3689 0 3776 19 49 11 107 26 129 35 103 37 260 140 335 219
112 118 218 308 235 425 4 26 12 42 21 42 12 0 14 310 14 2185 0 1875 -2 2185
-14 2185 -9 0 -17 16 -21 43 -17 112 -118 298 -228 418 -70 75 -241 188 -341
225 -127 47 -129 47 -811 53 l-650 6 -69 33 c-75 37 -161 114 -190 172 -9 19
-27 64 -38 100 -11 36 -24 75 -28 87 -5 12 -61 176 -124 365 -63 189 -122 357
-130 373 -40 81 -144 166 -240 198 -45 16 -187 17 -1630 16 -1407 0 -1586 -2
-1626 -16z m1825 -1793 c39 -5 107 -13 152 -19 46 -5 102 -15 125 -21 24 -6
70 -18 103 -27 62 -16 152 -44 195 -61 14 -5 45 -18 70 -27 77 -31 252 -117
310 -153 153 -96 242 -162 345 -255 79 -73 108 -102 204 -206 177 -193 366
-531 445 -796 16 -52 37 -131 56 -203 6 -23 16 -79 21 -125 6 -45 14 -113 19
-152 5 -38 9 -126 9 -195 0 -69 -4 -156 -9 -195 -5 -38 -13 -107 -19 -152 -5
-46 -15 -102 -21 -125 -36 -139 -65 -237 -85 -290 -8 -21 -22 -57 -32 -80 -87
-225 -242 -473 -415 -664 -83 -92 -241 -238 -303 -280 -27 -19 -70 -49 -95
-67 -105 -77 -296 -179 -430 -232 -25 -9 -56 -22 -70 -27 -220 -86 -491 -133
-770 -133 -279 0 -550 47 -770 133 -14 5 -45 18 -70 27 -134 53 -325 155 -430
232 -25 18 -67 48 -95 67 -62 42 -220 188 -303 280 -173 191 -328 439 -415
664 -10 23 -24 59 -32 80 -20 53 -49 151 -85 290 -6 23 -16 79 -21 125 -6 45
-14 114 -19 152 -5 39 -9 126 -9 195 0 69 4 157 9 195 5 39 13 107 19 152 5
46 15 102 21 125 35 135 65 237 84 288 40 103 53 133 94 220 81 168 217 375
323 491 96 104 125 133 204 206 184 167 426 318 655 408 25 9 56 22 70 27 43
17 133 45 195 61 33 9 79 21 103 27 23 6 79 16 125 21 45 6 109 14 142 18 84
11 316 12 400 1z m3202 -462 c126 -48 211 -181 200 -311 -11 -135 -84 -228
-221 -282 -177 -70 -406 99 -406 299 0 217 223 371 427 294z"/>
<path d="M4350 5387 c-3 -3 -45 -12 -95 -21 -147 -26 -234 -55 -365 -119 -338
-166 -590 -468 -695 -832 -69 -235 -69 -515 0 -750 107 -372 371 -682 718
-844 192 -90 356 -126 577 -126 267 0 486 61 708 197 95 58 146 98 236 186
266 261 401 585 401 962 0 390 -141 715 -430 991 -175 167 -400 280 -670 336
-68 14 -375 30 -385 20z"/>
</g>
</svg>
