<?xml version="1.0" standalone="no"?>
<!DOCTYPE svg PUBLIC "-//W3C//DTD SVG 20010904//EN"
 "http://www.w3.org/TR/2001/REC-SVG-20010904/DTD/svg10.dtd">
<svg version="1.0" xmlns="http://www.w3.org/2000/svg"
 width="900.000000pt" height="900.000000pt" viewBox="0 0 900.000000 900.000000"
 preserveAspectRatio="xMidYMid meet">
<metadata>
Created by potrace 1.10, written by Peter Selinger 2001-2011
</metadata>
<g transform="translate(0.000000,900.000000) scale(0.100000,-0.100000)"
fill="#ffffff" stroke="none">
<path d="M4671 8888 c0 -62 5 -167 10 -233 5 -66 14 -282 19 -480 5 -198 14
-498 19 -667 12 -371 -10 -1074 -38 -1198 -13 -56 -14 -127 -2 -134 4 -3 192
-6 417 -6 l409 -1 3 27 c2 15 -3 77 -12 138 -11 79 -19 266 -26 646 -6 294
-12 576 -13 625 -5 209 25 1182 39 1259 8 43 14 91 14 107 0 29 0 29 -63 29
l-63 0 -13 -166 c-36 -486 -40 -1840 -5 -2379 5 -93 4 -102 -16 -127 l-21 -28
-237 0 c-213 0 -239 2 -261 19 l-23 18 17 274 c15 227 17 362 12 789 -3 283
-10 610 -16 725 -5 116 -15 360 -22 543 l-12 332 -59 0 -58 0 1 -112z"/>
<path d="M3697 8897 c-10 -23 -72 -150 -137 -282 -65 -132 -133 -271 -150
-310 -70 -151 -88 -191 -102 -230 -9 -22 -23 -60 -33 -85 -9 -25 -23 -60 -31
-78 -8 -18 -14 -40 -14 -48 0 -9 -7 -37 -15 -63 -72 -227 -57 -541 36 -749 41
-91 11 -106 -63 -30 -29 29 -65 63 -79 73 -24 19 -35 45 -75 180 -10 33 -23
71 -30 85 -6 14 -20 45 -29 70 -26 70 -76 171 -107 218 -15 24 -28 45 -28 48
0 3 -20 32 -45 64 -25 32 -45 62 -45 66 0 21 -282 278 -373 341 -23 15 -48 34
-56 41 -7 7 -79 57 -160 110 -178 118 -182 120 -203 128 -10 3 -18 10 -18 14
0 5 -9 12 -21 15 -11 4 -47 24 -79 46 -33 22 -70 44 -82 49 -13 6 -36 19 -53
30 -16 11 -39 24 -50 30 -79 42 -326 189 -335 200 -7 8 -58 40 -65 40 -15 0
-2 -47 24 -83 33 -47 151 -244 151 -251 0 -3 12 -22 26 -43 14 -21 30 -47 35
-58 5 -11 19 -36 30 -55 31 -53 132 -217 151 -248 10 -15 21 -34 25 -42 11
-23 150 -228 198 -290 22 -30 51 -72 63 -92 13 -20 26 -38 30 -40 4 -2 25 -25
47 -53 98 -123 170 -194 290 -284 143 -108 252 -165 473 -245 93 -34 110 -39
153 -46 62 -11 108 -32 146 -66 65 -60 85 -75 188 -145 58 -40 104 -77 102
-83 -6 -17 -56 -19 -81 -2 -13 8 -45 19 -72 25 -27 5 -67 14 -89 20 -63 16
-285 14 -335 -4 -23 -8 -58 -15 -77 -15 -18 0 -50 -7 -70 -15 -19 -8 -47 -15
-62 -15 -14 -1 -37 -7 -51 -15 -14 -8 -36 -14 -48 -15 -13 0 -36 -6 -50 -14
-30 -15 -80 -33 -127 -46 -16 -5 -55 -18 -85 -30 -30 -12 -68 -26 -85 -30 -53
-15 -120 -41 -129 -51 -6 -5 -19 -9 -29 -9 -10 0 -31 -6 -45 -13 -15 -8 -43
-21 -62 -29 -19 -8 -52 -23 -73 -32 -21 -9 -44 -16 -51 -16 -8 0 -27 -7 -42
-15 -16 -8 -36 -15 -44 -15 -8 0 -30 -9 -49 -21 -47 -29 -30 -40 76 -50 193
-18 280 -29 318 -38 22 -6 66 -11 98 -11 31 0 101 -7 155 -17 74 -12 167 -16
392 -17 256 -1 303 1 355 17 33 10 85 25 115 34 48 14 216 91 275 126 58 34
165 110 165 116 0 4 11 13 25 19 23 11 33 7 103 -41 43 -29 84 -56 92 -60 8
-4 24 -13 35 -20 127 -76 304 -174 410 -227 33 -17 67 -34 75 -39 56 -34 331
-161 349 -161 13 0 26 9 33 25 10 21 8 30 -8 52 -11 15 -27 30 -35 33 -7 4
-34 18 -59 31 -25 12 -54 27 -65 32 -11 6 -27 14 -35 19 -8 4 -22 11 -30 14
-30 13 -276 136 -310 156 -19 11 -55 31 -80 45 -25 13 -58 33 -75 44 -16 10
-39 23 -50 29 -11 5 -27 14 -35 19 -8 5 -44 27 -79 48 -35 21 -75 46 -90 55
-14 10 -33 21 -41 25 -26 13 -215 140 -231 154 -16 15 -55 43 -125 90 -39 27
-59 59 -36 59 13 0 104 96 148 155 21 28 40 52 44 55 9 8 63 92 77 120 4 8 19
35 33 60 15 25 29 54 32 65 4 11 16 45 27 75 71 187 97 439 86 864 -12 494
-17 590 -35 593 -9 2 -22 -13 -33 -40z m-1927 -473 c175 -105 498 -323 602
-406 262 -211 402 -394 504 -660 34 -89 43 -151 24 -163 -33 -21 -337 112
-465 203 -232 165 -449 433 -716 882 -142 238 -135 256 51 144z m1864 -305 c0
-313 -8 -400 -51 -549 -44 -154 -186 -390 -234 -390 -34 0 -64 206 -55 367 10
171 57 336 168 588 39 88 76 169 83 180 6 11 24 42 39 68 15 27 33 46 39 44 9
-3 12 -84 11 -308z m-182 -1456 c36 -32 17 -56 -104 -127 -239 -141 -459 -182
-827 -156 -102 7 -199 14 -216 14 -54 3 -155 30 -152 41 11 32 308 141 567
206 88 23 276 30 526 20 63 -2 108 0 120 7 28 16 65 14 86 -5z"/>
<path d="M5075 5900 l-410 -5 3 -105 c2 -58 8 -161 13 -230 6 -69 14 -282 19
-475 5 -192 14 -487 19 -655 14 -397 -9 -1052 -43 -1244 -8 -49 -13 -93 -10
-97 3 -5 194 -9 425 -9 l419 0 0 35 c0 19 -6 77 -14 128 -12 78 -29 633 -40
1297 0 41 5 314 12 605 9 384 17 555 29 620 16 93 15 138 -2 139 -5 1 -194 -1
-420 -4z m270 -150 c22 -24 22 -13 7 -505 -18 -610 -11 -1563 14 -1896 6 -80
5 -87 -17 -112 l-24 -27 -237 -2 c-230 -2 -239 -2 -259 19 l-21 21 16 253 c18
283 21 890 6 1254 -5 121 -14 387 -21 592 -12 345 -11 373 5 397 l16 26 249 0
c234 0 249 -1 266 -20z"/>
<path d="M8819 5667 c-24 -18 -51 -37 -59 -40 -8 -4 -28 -16 -45 -27 -16 -11
-39 -24 -50 -30 -11 -6 -36 -20 -55 -31 -19 -12 -55 -32 -80 -46 -25 -13 -58
-33 -75 -44 -16 -10 -39 -23 -50 -29 -11 -5 -29 -16 -40 -22 -10 -7 -37 -24
-60 -38 -22 -13 -49 -30 -60 -37 -11 -7 -27 -16 -35 -20 -8 -4 -43 -26 -78
-50 -35 -24 -65 -43 -67 -43 -14 0 -379 -259 -395 -281 -3 -3 -32 -29 -65 -56
-87 -72 -150 -136 -214 -219 -63 -81 -141 -201 -141 -217 0 -6 -6 -18 -13 -26
-12 -15 -58 -119 -94 -216 -8 -22 -21 -55 -29 -73 -8 -18 -14 -40 -14 -48 0
-32 -36 -119 -56 -139 -72 -67 -116 -106 -174 -153 -36 -30 -83 -71 -105 -91
-94 -87 -131 -91 -86 -8 95 173 133 287 152 452 11 100 1 355 -17 415 -8 25
-14 62 -14 84 0 21 -7 59 -15 85 -8 25 -21 73 -29 106 -8 33 -19 80 -26 105
-6 25 -15 63 -19 85 -4 22 -12 56 -18 75 -6 19 -19 62 -28 95 -10 33 -23 80
-30 105 -8 25 -21 72 -30 105 -9 33 -21 74 -26 91 -5 17 -9 42 -9 55 0 29 -24
67 -33 52 -13 -20 -37 -99 -37 -121 0 -23 -17 -103 -45 -207 -28 -107 -38
-152 -45 -200 -10 -64 -28 -155 -46 -226 -8 -30 -14 -69 -14 -87 0 -17 -5 -43
-10 -57 -6 -15 -17 -109 -26 -209 -20 -239 -8 -359 57 -559 11 -32 23 -65 28
-75 5 -9 28 -57 52 -105 23 -49 57 -108 76 -133 19 -24 33 -52 31 -60 -2 -13
-63 -54 -118 -81 -8 -4 -40 -24 -72 -45 -32 -21 -68 -43 -80 -48 -13 -6 -36
-19 -53 -29 -106 -68 -417 -227 -620 -316 -110 -49 -127 -59 -140 -86 -20 -37
-20 -36 16 -58 30 -18 31 -18 76 6 25 13 73 35 107 49 34 14 111 50 171 79 61
29 117 55 125 59 8 3 29 14 45 24 17 10 60 35 98 55 37 21 101 58 143 82 42
25 80 45 85 45 6 0 22 -11 37 -26 24 -22 134 -100 184 -129 9 -5 52 -27 95
-48 43 -22 91 -45 106 -53 16 -8 35 -14 42 -14 8 0 29 -6 47 -14 96 -40 175
-49 442 -48 181 1 293 6 363 17 57 8 129 15 160 15 32 0 94 6 138 14 114 21
237 37 333 43 117 8 111 33 -18 75 -30 10 -72 25 -92 33 -21 8 -57 22 -80 31
-24 9 -59 23 -78 32 -81 34 -96 40 -115 45 -11 3 -45 15 -75 27 -30 12 -66 24
-80 27 -14 3 -30 10 -37 15 -7 6 -27 14 -45 18 -37 9 -88 27 -135 47 -17 7
-36 13 -43 13 -7 0 -35 7 -64 16 -28 9 -71 22 -96 30 -25 8 -59 14 -76 14 -17
0 -51 7 -74 15 -68 24 -298 20 -413 -6 -51 -12 -99 -28 -108 -35 -19 -17 -65
-18 -75 -3 -8 14 17 35 111 90 115 68 300 212 385 299 25 25 117 60 158 60 12
0 36 6 54 14 32 13 79 32 163 63 112 42 265 126 362 198 191 142 397 394 659
805 41 64 52 83 61 100 4 8 18 31 31 50 13 19 28 44 33 55 6 11 15 29 22 40 7
11 37 63 67 115 30 52 60 104 67 115 7 11 17 29 23 40 6 11 18 32 28 46 9 15
31 50 47 78 17 28 33 51 38 51 4 0 7 9 7 20 0 30 -31 25 -81 -13z m-289 -352
c0 -24 -81 -175 -140 -260 -11 -16 -68 -102 -126 -190 -111 -167 -122 -183
-240 -330 -80 -102 -195 -214 -269 -264 -28 -19 -68 -47 -90 -62 -107 -73
-383 -189 -418 -176 -24 9 -14 67 30 182 131 334 334 552 798 860 132 87 253
163 285 178 8 4 40 23 70 42 59 37 100 45 100 20z m-1959 -278 c9 -12 34 -96
57 -187 112 -451 118 -646 27 -946 -29 -95 -51 -129 -79 -118 -27 10 -87 153
-127 299 -10 36 -14 115 -13 280 0 230 0 230 42 435 41 199 58 260 71 260 3 0
13 -11 22 -23z m71 -1668 c38 -10 79 -10 206 1 126 10 175 10 242 1 211 -30
423 -90 668 -188 79 -32 85 -57 15 -67 -271 -39 -618 -49 -772 -20 -144 26
-293 88 -426 176 -73 48 -85 70 -59 100 20 21 36 21 126 -3z"/>
<path d="M86 5163 c-9 -9 -7 -41 2 -45 8 -3 112 -155 112 -164 0 -5 74 -134
100 -174 6 -8 13 -22 17 -30 3 -8 18 -31 33 -50 15 -19 30 -42 34 -50 10 -22
26 -47 74 -118 23 -35 42 -66 42 -68 0 -12 188 -252 242 -310 92 -97 205 -177
338 -240 94 -43 120 -54 135 -54 8 0 29 -6 47 -14 18 -8 60 -22 93 -31 46 -14
87 -38 178 -109 155 -119 294 -213 387 -262 41 -21 81 -45 88 -51 7 -7 20 -13
28 -13 8 0 14 -9 14 -20 0 -15 -7 -20 -29 -20 -16 0 -36 7 -45 15 -8 8 -23 15
-33 15 -10 0 -31 7 -47 15 -65 34 -265 53 -371 36 -116 -19 -280 -66 -395
-113 -14 -6 -38 -14 -55 -18 -51 -14 -134 -45 -187 -71 -42 -21 -215 -79 -234
-79 -8 0 -14 -10 -14 -24 0 -21 5 -24 61 -30 34 -3 85 -6 113 -6 28 0 67 -5
86 -11 19 -5 91 -14 160 -19 69 -5 157 -14 195 -19 198 -29 424 -3 585 66 96
42 229 124 270 168 30 32 48 31 107 -3 26 -16 68 -38 93 -51 25 -12 52 -26 60
-31 8 -4 40 -18 70 -31 30 -12 75 -31 100 -42 63 -29 110 -47 145 -57 17 -4
46 -14 65 -21 19 -6 51 -17 70 -24 19 -7 51 -18 70 -25 19 -7 53 -16 75 -20
49 -9 123 -27 190 -45 28 -8 59 -17 71 -20 23 -6 74 28 74 50 0 25 -59 64
-108 70 -66 9 -227 49 -307 77 -16 5 -43 13 -60 18 -16 5 -55 18 -85 30 -30
12 -64 24 -75 27 -11 3 -48 18 -83 34 -34 16 -65 29 -68 29 -6 0 -238 114
-287 140 -9 6 -25 14 -35 19 -9 6 -35 19 -56 31 -21 12 -78 47 -125 78 -47 31
-106 67 -130 79 -63 31 -68 46 -34 91 15 20 36 55 47 77 10 22 25 52 32 67 8
14 14 33 14 42 0 8 6 30 14 48 59 141 60 300 4 588 -5 30 -14 78 -18 105 -11
69 -29 161 -45 220 -32 121 -45 186 -45 229 0 32 -4 46 -13 46 -22 0 -47 -34
-47 -62 0 -14 -7 -50 -16 -79 -8 -30 -22 -76 -30 -104 -8 -27 -21 -72 -29 -98
-8 -26 -15 -55 -15 -64 0 -9 -7 -41 -16 -72 -50 -179 -63 -245 -74 -371 -17
-190 2 -317 67 -446 32 -65 36 -94 13 -94 -4 0 -26 17 -49 38 -22 20 -78 69
-125 107 -87 72 -101 92 -131 185 -39 121 -130 288 -215 391 -26 31 -80 85
-121 121 -75 65 -234 188 -243 188 -3 0 -33 19 -68 43 -35 23 -73 47 -84 54
-33 20 -154 97 -182 115 -15 10 -34 21 -42 25 -27 12 -214 126 -260 158 -51
35 -75 46 -84 38z m564 -477 c329 -214 446 -330 554 -545 25 -50 46 -102 46
-116 0 -42 -56 -34 -171 27 -197 103 -340 253 -540 568 -43 69 -79 133 -79
143 0 35 48 16 190 -77z m1184 -208 c39 -108 46 -393 13 -513 -28 -101 -66
-144 -82 -92 -34 110 -44 178 -40 282 6 167 51 365 84 365 5 0 16 -19 25 -42z
m2 -1200 c15 -15 15 -19 3 -34 -17 -20 -84 -51 -154 -71 -67 -19 -411 -28
-442 -11 -60 31 4 67 202 114 83 19 123 23 237 21 114 -2 140 -5 154 -19z"/>
<path d="M3255 5150 c-5 -8 15 -343 21 -360 3 -8 11 -157 17 -330 21 -566 12
-1119 -18 -1235 -8 -27 -15 -70 -17 -95 l-3 -45 423 -3 422 -2 0 24 c0 13 -6
51 -14 83 -18 73 -39 583 -40 943 -1 350 21 869 40 937 27 98 71 88 -407 88
-231 0 -422 -2 -424 -5z m671 -141 c18 -20 19 -34 14 -193 -3 -94 -5 -409 -5
-701 0 -291 2 -607 5 -702 4 -145 3 -174 -10 -187 -23 -23 -484 -26 -506 -4
-12 12 -15 38 -12 119 8 282 1 1078 -11 1346 -14 290 -13 304 4 323 17 19 31
20 260 20 234 0 243 -1 261 -21z"/>
<path d="M3257 2803 c-6 -10 11 -462 18 -488 3 -11 11 -213 18 -450 21 -765
13 -1513 -19 -1685 -8 -41 -14 -99 -14 -127 l0 -53 54 0 53 0 7 48 c36 244 38
287 43 871 4 471 1 698 -13 1090 -25 648 -25 628 5 652 21 17 42 19 253 19
190 0 234 -3 260 -16 l31 -16 -7 -136 c-13 -298 -19 -1702 -7 -1960 12 -271
29 -505 37 -534 4 -15 17 -18 64 -18 l60 0 -6 48 c-3 26 -8 54 -11 62 -7 20
-20 393 -33 925 -9 362 -8 542 5 1015 11 407 20 595 31 644 8 38 14 79 14 92
l0 24 -419 0 c-231 0 -422 -3 -424 -7z"/>
<path d="M4669 2803 c-3 -19 3 -201 12 -328 5 -77 14 -297 19 -490 5 -192 14
-483 19 -646 13 -361 -10 -1068 -38 -1214 -5 -27 -10 -67 -10 -87 l-1 -38 58
0 58 0 17 162 c33 324 40 527 34 1063 -4 286 -11 608 -16 715 -5 107 -13 308
-17 446 -7 250 -7 251 15 273 22 22 26 22 265 19 193 -2 247 -6 260 -17 16
-14 17 -39 9 -365 -11 -471 -8 -1629 6 -1898 6 -120 16 -258 22 -308 l12 -90
58 0 c69 0 66 -11 45 147 -10 70 -19 299 -26 653 -6 300 -12 583 -13 630 -5
207 25 1167 39 1241 8 42 14 90 14 107 l0 32 -420 0 c-231 0 -421 -3 -421 -7z"/>
</g>
</svg>
