<?xml version="1.0" standalone="no"?>
<!DOCTYPE svg PUBLIC "-//W3C//DTD SVG 20010904//EN"
 "http://www.w3.org/TR/2001/REC-SVG-20010904/DTD/svg10.dtd">
<svg version="1.0" xmlns="http://www.w3.org/2000/svg"
 width="900.000000pt" height="900.000000pt" viewBox="0 0 900.000000 900.000000"
 preserveAspectRatio="xMidYMid meet">
<metadata>
Created by potrace 1.10, written by Peter Selinger 2001-2011
</metadata>
<g transform="translate(0.000000,900.000000) scale(0.100000,-0.100000)"
fill="#ffffff" stroke="none">
<path d="M3485 8985 c-6 -9 -28 -18 -50 -22 -92 -13 -277 -120 -390 -224 -68
-64 -88 -76 -150 -94 -64 -19 -84 -26 -215 -76 -196 -74 -397 -201 -540 -341
-172 -167 -263 -336 -301 -555 -6 -39 -15 -75 -18 -80 -3 -5 -34 -30 -68 -56
-209 -160 -362 -404 -426 -682 -25 -111 -40 -275 -35 -384 3 -55 2 -104 -1
-108 -3 -5 -26 -24 -51 -43 -65 -49 -185 -175 -227 -239 -45 -68 -122 -220
-123 -241 0 -9 -4 -20 -8 -25 -11 -12 -45 -126 -65 -220 -53 -241 -56 -622 -6
-908 10 -56 9 -60 -29 -140 -83 -176 -135 -336 -178 -547 -25 -121 -24 -469 1
-573 39 -159 79 -256 153 -369 43 -66 43 -66 47 -170 3 -113 19 -238 40 -308
39 -137 50 -169 67 -215 20 -49 98 -211 121 -250 149 -248 357 -468 671 -709
164 -126 375 -337 506 -506 40 -52 76 -97 80 -100 20 -16 205 -279 255 -362
37 -63 89 -129 117 -150 35 -25 236 -148 244 -148 2 0 28 -12 57 -26 158 -77
324 -114 514 -114 187 0 284 22 429 95 211 107 387 299 525 573 27 52 48 82
58 82 10 0 26 -21 41 -52 171 -366 479 -636 785 -688 80 -14 342 -8 420 8 67
14 220 66 273 92 23 11 52 25 65 30 12 6 36 19 52 29 17 11 48 29 70 41 124
68 159 105 290 305 75 114 169 244 224 311 14 17 40 48 56 69 147 191 306 347
565 554 269 215 424 377 566 593 177 267 276 573 276 848 0 90 1 91 45 158 24
37 53 87 64 112 11 25 25 53 30 62 13 26 45 132 65 216 24 105 24 444 0 562
-43 211 -89 354 -166 525 -45 99 -47 107 -39 154 34 214 45 589 21 756 -48
333 -139 556 -307 749 -35 40 -94 97 -130 125 l-65 51 0 128 c0 322 -70 573
-223 798 -68 101 -198 229 -305 299 -1 1 -11 44 -22 96 -25 124 -42 175 -89
269 -154 307 -512 564 -969 695 -49 15 -76 31 -125 75 -34 31 -89 77 -122 102
-65 49 -241 138 -273 138 -32 0 -74 19 -67 30 4 6 -43 10 -133 10 -111 0 -141
-3 -145 -14 -3 -8 -21 -17 -39 -21 -88 -18 -217 -76 -318 -144 -36 -24 -69
-49 -75 -56 -5 -6 -32 -28 -59 -50 -27 -21 -87 -83 -134 -137 -47 -54 -93 -98
-103 -98 -9 0 -46 35 -82 78 -124 148 -271 267 -417 338 -72 35 -137 59 -188
69 -18 4 -36 13 -39 21 -8 21 -264 20 -278 -1z m281 -284 c87 -28 111 -40 201
-99 83 -54 249 -213 300 -287 16 -22 36 -49 46 -60 10 -11 20 -29 23 -40 2
-11 3 -1617 2 -3570 l-3 -3550 -23 -55 c-13 -30 -27 -67 -32 -81 -4 -15 -27
-67 -51 -115 -135 -277 -296 -453 -484 -532 -244 -104 -572 -47 -857 148 -66
44 -101 88 -228 285 -35 54 -94 135 -150 205 -33 41 -86 109 -119 150 -94 121
-367 393 -487 485 -414 320 -635 585 -756 910 -47 126 -60 195 -37 195 6 0 30
-13 54 -29 90 -60 162 -62 215 -6 20 21 24 37 25 85 0 68 -15 90 -104 147 -83
54 -182 135 -235 194 -45 50 -146 209 -146 229 0 5 -6 24 -14 42 -77 178 -77
524 0 768 8 25 14 52 14 61 0 9 8 27 18 40 16 18 29 23 76 23 52 1 61 4 87 34
26 29 29 40 29 97 0 36 -6 91 -14 123 -16 64 -38 191 -61 357 -20 144 -20 465
0 555 8 36 14 79 15 96 0 71 83 300 143 399 20 33 70 98 94 124 29 30 50 16
59 -38 17 -101 119 -401 152 -449 28 -38 90 -57 137 -42 39 13 82 59 91 97 7
26 -8 103 -31 158 -33 78 -61 164 -88 270 -9 33 -20 78 -26 100 -19 75 -51
325 -51 404 0 166 46 362 122 516 33 66 143 210 161 210 6 0 20 -31 30 -70 29
-107 45 -138 83 -165 62 -42 138 -26 181 39 33 48 30 80 -23 267 -8 31 -14 95
-14 165 1 137 21 225 82 349 34 69 60 103 138 181 55 56 132 121 185 155 158
104 195 114 195 57 1 -54 66 -103 135 -103 44 0 92 46 192 185 144 199 286
321 444 380 84 31 219 34 305 6z m1729 0 c73 -23 115 -44 175 -85 92 -63 207
-182 293 -301 87 -121 145 -180 183 -188 19 -4 44 1 74 16 45 22 64 48 75 100
7 36 21 34 97 -10 128 -74 205 -132 283 -214 108 -112 149 -185 196 -339 24
-80 26 -274 5 -359 -8 -31 -21 -84 -30 -118 -21 -84 -20 -102 9 -146 36 -52
87 -72 143 -56 67 18 94 66 129 227 3 12 9 25 14 28 19 11 121 -120 170 -217
17 -35 38 -76 45 -91 8 -14 14 -34 14 -44 0 -10 6 -36 14 -59 33 -93 49 -232
43 -368 -5 -129 -11 -172 -43 -327 -27 -130 -59 -238 -136 -460 -23 -65 -18
-107 18 -149 35 -42 86 -57 136 -40 40 13 80 55 91 94 3 11 15 45 27 75 12 30
25 69 30 85 5 17 13 44 18 60 6 17 18 57 27 90 31 113 40 139 52 142 33 11
181 -232 217 -357 9 -30 23 -77 31 -103 8 -26 15 -62 15 -80 0 -18 7 -57 15
-87 21 -77 21 -444 0 -583 -28 -184 -46 -291 -61 -348 -19 -76 -18 -163 2
-195 24 -36 69 -56 117 -52 39 2 43 0 59 -32 35 -75 73 -246 89 -405 9 -90 8
-131 -5 -230 -19 -147 -34 -204 -81 -300 -71 -145 -175 -260 -325 -360 -133
-88 -145 -103 -145 -175 0 -44 5 -64 20 -80 27 -29 68 -50 101 -50 27 0 117
41 145 66 57 51 51 -33 -14 -201 -28 -75 -105 -226 -133 -262 -13 -17 -24 -35
-24 -38 0 -7 -78 -111 -120 -160 -64 -75 -223 -229 -301 -291 -47 -38 -108
-87 -135 -109 -201 -162 -410 -370 -535 -530 -29 -38 -59 -74 -65 -80 -23 -22
-165 -218 -257 -355 -79 -118 -108 -153 -155 -187 -33 -23 -68 -46 -78 -49
-10 -4 -26 -12 -34 -19 -14 -11 -130 -61 -210 -90 -170 -62 -388 -60 -545 7
-105 44 -236 151 -323 264 -30 39 -152 239 -152 249 0 3 -12 29 -26 58 -14 28
-30 63 -34 77 -5 14 -20 56 -34 94 l-26 69 0 3542 0 3542 42 59 c83 119 182
223 284 301 68 52 194 123 219 123 12 0 25 4 31 9 26 26 199 27 279 2z"/>
<path d="M3235 8278 c-52 -27 -168 -120 -224 -181 -221 -237 -238 -565 -43
-862 42 -65 41 -75 -6 -75 -37 0 -75 -19 -100 -50 -20 -24 -106 -152 -121
-180 -39 -72 -81 -160 -81 -168 0 -6 -6 -23 -14 -39 -33 -65 -66 -174 -91
-296 -18 -91 -20 -342 -4 -401 6 -21 14 -59 19 -85 9 -53 48 -159 89 -246 35
-74 46 -112 71 -256 25 -146 28 -436 5 -492 -8 -20 -15 -61 -15 -90 0 -48 4
-58 35 -90 33 -34 41 -37 90 -37 75 0 106 29 141 135 25 73 28 97 32 264 4
185 3 191 -39 416 -6 33 -15 81 -19 106 -5 26 -25 82 -46 125 -87 183 -103
251 -104 440 0 102 5 168 14 200 8 27 22 78 32 114 10 36 23 76 29 90 64 135
97 198 147 274 32 48 58 97 58 107 0 44 31 32 103 -38 40 -39 82 -76 94 -82
52 -27 117 -3 158 56 47 69 31 108 -95 240 -195 202 -281 390 -250 539 26 121
93 210 236 313 69 49 104 95 104 136 0 33 -33 87 -69 111 -43 29 -83 30 -136
2z"/>
<path d="M3545 7768 c-39 -14 -70 -43 -86 -80 -13 -31 -10 -57 26 -228 68
-330 99 -637 100 -975 0 -348 -32 -585 -111 -825 -57 -170 -62 -205 -39 -249
55 -107 213 -85 248 34 3 11 16 52 30 90 72 211 108 399 134 702 16 190 16
219 0 475 -20 311 -47 528 -93 758 -49 238 -62 269 -124 294 -46 18 -44 18
-85 4z"/>
<path d="M4120 5039 c-37 -15 -68 -47 -92 -96 -54 -109 -168 -144 -464 -147
-215 -1 -216 -1 -256 -80 -19 -37 -19 -41 -4 -81 22 -57 44 -75 113 -91 112
-27 426 -13 512 22 18 8 40 14 47 14 37 0 152 69 206 123 73 74 101 132 102
213 1 70 -14 96 -73 120 -39 16 -56 17 -91 3z"/>
<path d="M2142 5019 c-68 -13 -95 -31 -119 -80 -19 -38 -21 -50 -12 -83 6 -21
25 -52 42 -67 28 -26 39 -29 96 -29 54 0 72 -5 115 -31 93 -57 147 -130 253
-339 131 -258 219 -354 392 -426 89 -37 300 -18 362 33 8 7 21 13 28 13 6 0
31 20 56 44 55 55 65 97 37 152 -41 80 -119 95 -211 42 -48 -28 -66 -32 -127
-33 -62 0 -76 3 -114 30 -53 37 -107 107 -155 205 -117 238 -162 308 -259 405
-105 103 -183 145 -316 168 -14 2 -44 1 -68 -4z"/>
<path d="M1254 4880 c-37 -15 -64 -63 -64 -116 0 -39 8 -60 45 -120 72 -116
110 -210 148 -374 32 -138 40 -224 44 -485 4 -300 11 -344 86 -570 34 -104 44
-127 97 -229 123 -240 264 -373 448 -422 72 -19 111 -18 149 6 60 36 81 118
44 174 -22 33 -68 66 -94 66 -31 0 -109 41 -160 83 -77 65 -164 209 -220 362
-34 96 -40 112 -47 150 -4 22 -15 70 -23 106 -11 50 -13 105 -10 220 11 311
-50 670 -148 887 -16 34 -29 65 -29 68 0 10 -92 149 -111 167 -37 35 -106 47
-155 27z"/>
<path d="M2140 4580 c-38 -8 -66 -32 -86 -73 -16 -33 -16 -46 -5 -134 15 -116
60 -274 116 -408 35 -85 145 -290 194 -365 31 -47 59 -92 63 -100 5 -13 124
-164 179 -228 30 -35 142 -193 157 -222 56 -104 111 -291 112 -374 0 -48 -31
-158 -55 -197 -29 -45 -79 -95 -124 -123 -87 -55 -292 -116 -389 -116 -75 0
-149 -19 -181 -46 -62 -52 -65 -132 -6 -191 32 -32 35 -33 122 -33 112 0 305
35 418 77 272 99 426 273 466 525 6 43 9 103 5 133 -6 51 -5 55 15 55 11 0 41
-9 67 -19 101 -41 130 -49 220 -61 116 -16 207 -2 302 46 102 53 216 173 220
234 5 63 -1 83 -34 116 -31 31 -40 34 -91 34 l-56 0 -67 -69 c-76 -79 -120
-101 -201 -101 -74 0 -198 39 -271 85 -22 14 -42 25 -45 25 -3 0 -33 19 -68
43 -34 23 -75 47 -90 52 -25 9 -64 61 -94 125 -8 18 -86 122 -127 171 -63 72
-139 168 -150 187 -6 11 -33 54 -60 94 -28 40 -65 102 -84 138 -61 114 -92
179 -92 189 0 5 -6 22 -14 38 -14 27 -31 70 -55 143 -15 45 -51 224 -51 254 0
13 -15 38 -35 57 -35 35 -80 49 -125 39z"/>
<path d="M3210 2028 c-37 -20 -72 -86 -66 -126 9 -62 48 -98 129 -123 39 -12
87 -28 105 -35 18 -8 37 -14 42 -14 5 0 48 -23 94 -50 179 -106 289 -242 357
-440 24 -71 40 -95 81 -116 93 -48 200 33 184 140 -22 139 -140 351 -265 477
-61 61 -189 154 -251 183 -27 13 -55 27 -62 33 -7 6 -22 13 -33 16 -11 3 -51
17 -89 31 -84 32 -190 43 -226 24z"/>
<path d="M2241 1910 c-30 -13 -55 -41 -71 -81 -20 -47 -1 -92 111 -256 175
-260 249 -352 439 -545 106 -108 277 -251 355 -295 55 -31 150 -75 207 -94 87
-30 288 -33 330 -5 132 88 56 261 -106 242 -94 -11 -200 23 -321 102 -227 149
-486 435 -729 806 -30 45 -65 92 -79 105 -29 26 -97 37 -136 21z"/>
<path d="M5615 8277 c-29 -16 -45 -35 -59 -69 -19 -46 -19 -46 2 -89 16 -31
40 -56 84 -87 78 -53 93 -65 145 -125 82 -95 114 -198 95 -310 -23 -132 -99
-261 -237 -405 -84 -88 -135 -159 -135 -190 0 -24 40 -92 64 -107 13 -9 40
-19 59 -22 48 -7 110 29 172 102 54 63 80 70 89 25 3 -17 30 -68 61 -114 30
-46 58 -92 61 -102 4 -11 12 -26 19 -34 17 -22 72 -157 89 -220 8 -30 22 -81
31 -112 24 -82 24 -330 0 -413 -24 -86 -49 -153 -77 -205 -39 -75 -63 -166
-100 -385 -19 -116 -17 -433 4 -505 42 -145 73 -180 159 -180 46 0 55 4 85 36
20 21 34 47 35 62 2 55 -3 95 -17 127 -22 53 -19 324 5 467 23 133 47 228 61
242 5 5 10 17 10 26 0 9 5 21 12 28 12 12 21 35 55 137 44 131 53 195 53 359
0 157 -8 219 -47 356 -60 211 -232 524 -315 574 -14 9 -40 16 -56 16 -17 0
-34 5 -37 10 -4 6 10 35 29 65 40 59 83 150 111 235 27 79 28 293 1 370 -30
87 -69 154 -151 258 -25 32 -182 155 -226 177 -60 31 -83 31 -134 2z"/>
<path d="M5365 7768 c-62 -22 -79 -47 -104 -156 -86 -360 -134 -787 -132
-1160 1 -137 26 -475 36 -492 3 -4 9 -36 14 -71 17 -114 58 -276 91 -359 12
-30 26 -68 31 -85 14 -46 50 -84 94 -99 34 -12 45 -12 75 0 41 17 86 65 93
101 4 22 -15 97 -41 163 -5 14 -17 50 -25 80 -73 258 -102 477 -102 775 0 365
38 698 126 1102 22 100 0 165 -66 192 -41 17 -61 19 -90 9z"/>
<path d="M4774 5037 c-60 -24 -78 -50 -78 -120 0 -66 12 -97 69 -172 45 -60
83 -90 160 -128 94 -47 152 -63 270 -78 197 -23 398 -8 443 34 51 47 63 94 36
149 -33 69 -47 73 -259 74 -294 3 -411 40 -465 147 -30 61 -43 75 -83 92 -42
17 -51 18 -93 2z"/>
<path d="M6760 5019 c-122 -19 -194 -57 -297 -159 -87 -85 -155 -186 -230
-340 -71 -147 -112 -209 -170 -259 -81 -69 -162 -72 -273 -7 -81 46 -157 29
-195 -44 -41 -80 2 -159 115 -212 106 -49 123 -53 230 -52 122 1 172 19 276
97 96 73 172 179 249 347 21 47 44 92 50 100 7 8 15 22 19 30 33 72 124 173
189 210 40 23 65 30 106 30 64 0 113 26 131 71 48 115 -53 210 -200 188z"/>
<path d="M7620 4882 c-32 -15 -57 -38 -93 -88 -20 -29 -37 -55 -37 -60 0 -4
-6 -15 -13 -23 -24 -29 -84 -185 -120 -311 -46 -161 -70 -387 -71 -655 -1
-230 -2 -239 -56 -410 -32 -98 -51 -149 -61 -159 -5 -6 -9 -16 -9 -23 0 -28
-108 -192 -159 -242 -54 -52 -141 -101 -178 -101 -26 0 -72 -33 -94 -66 -52
-79 14 -194 110 -194 45 0 132 25 196 56 66 33 167 122 230 204 45 59 149 246
165 297 5 16 18 53 30 83 20 52 29 82 67 220 11 39 17 138 23 345 7 280 13
345 47 505 30 144 85 293 135 361 15 21 28 43 28 48 0 5 6 14 14 20 38 32 25
132 -23 175 -22 20 -104 31 -131 18z"/>
<path d="M6780 4581 c-54 -13 -100 -66 -100 -114 0 -96 -74 -334 -156 -502
-69 -140 -192 -337 -271 -434 -15 -18 -54 -66 -87 -105 -62 -75 -115 -150
-159 -227 -17 -31 -37 -51 -56 -57 -17 -6 -56 -28 -88 -50 -32 -21 -65 -42
-73 -45 -8 -4 -31 -17 -50 -29 -62 -37 -197 -78 -260 -78 -81 0 -123 21 -199
101 l-67 69 -57 0 c-51 0 -60 -3 -92 -35 -31 -32 -35 -42 -35 -87 0 -44 5 -58
39 -102 63 -81 111 -122 186 -159 101 -50 184 -63 298 -47 51 7 108 18 127 25
19 8 65 25 102 39 36 14 69 26 72 26 3 0 5 -35 4 -77 -2 -143 17 -224 79 -343
35 -68 146 -180 221 -223 70 -39 200 -97 220 -97 8 0 35 -6 61 -14 77 -24 223
-46 308 -46 66 0 85 4 107 21 67 53 75 141 18 197 -31 31 -75 43 -181 53 -263
23 -453 112 -529 248 -70 124 -50 335 50 537 17 33 67 108 112 167 44 58 115
150 156 204 140 181 266 393 330 553 12 30 27 69 35 85 45 103 94 318 95 415
0 93 -74 153 -160 131z"/>
<path d="M5640 2033 c-47 -8 -145 -44 -228 -85 -238 -115 -398 -277 -514 -520
-45 -95 -63 -212 -39 -257 32 -59 123 -78 182 -38 34 22 77 95 78 130 1 21 60
132 103 195 45 65 115 134 188 184 64 45 209 118 233 118 23 0 122 35 143 50
28 20 54 72 54 108 0 16 -13 47 -29 69 -36 49 -80 61 -171 46z"/>
<path d="M6643 1913 c-28 -6 -70 -55 -147 -173 -130 -201 -271 -375 -443 -547
-115 -115 -175 -163 -301 -245 -82 -53 -189 -81 -275 -71 -132 13 -218 -93
-157 -192 37 -61 61 -69 195 -69 128 0 175 11 305 71 46 22 184 106 200 123 3
3 23 18 45 35 69 51 274 256 369 370 164 196 349 461 377 538 27 75 -26 155
-107 162 -21 2 -49 1 -61 -2z"/>
</g>
</svg>
