<?xml version="1.0" standalone="no"?>
<!DOCTYPE svg PUBLIC "-//W3C//DTD SVG 20010904//EN"
 "http://www.w3.org/TR/2001/REC-SVG-20010904/DTD/svg10.dtd">
<svg version="1.0" xmlns="http://www.w3.org/2000/svg"
 width="900.000000pt" height="900.000000pt" viewBox="0 0 900.000000 900.000000"
 preserveAspectRatio="xMidYMid meet">
<metadata>
Created by potrace 1.10, written by Peter Selinger 2001-2011
</metadata>
<g transform="translate(0.000000,900.000000) scale(0.100000,-0.100000)"
fill="#ffffff" stroke="none">
<path d="M555 7990 c-16 -5 -50 -14 -75 -20 -48 -12 -111 -42 -180 -85 -50
-31 -173 -154 -194 -194 -42 -78 -77 -156 -88 -193 -18 -63 -18 -5953 0 -6016
31 -108 99 -219 185 -305 89 -89 169 -134 317 -178 67 -21 7873 -21 7940 0
148 44 228 89 317 178 86 85 164 215 180 296 8 43 22 69 34 62 5 -4 9 1088 9
2955 0 1867 -4 2959 -9 2955 -12 -7 -26 19 -34 62 -7 37 -51 130 -90 191 -66
103 -209 217 -318 254 -24 8 -60 22 -79 29 -30 12 -639 14 -3960 16 -2159 0
-3938 -3 -3955 -7z m7915 -292 c77 -38 168 -120 201 -183 45 -84 49 -120 47
-381 l-3 -249 -4225 0 -4225 0 -3 249 c-3 264 1 293 49 386 49 93 199 198 304
211 28 3 1789 6 3915 5 l3865 -1 75 -37z m248 -3593 c2 -2299 1 -2514 -14
-2560 -24 -74 -43 -104 -104 -168 -38 -41 -78 -70 -130 -95 l-75 -37 -3905 0
-3905 0 -75 37 c-52 25 -92 54 -130 95 -63 67 -75 85 -101 161 -18 53 -19 130
-19 2563 0 1996 3 2508 13 2512 6 3 1909 5 4227 4 l4215 -2 3 -2510z"/>
<path d="M643 7429 c-48 -14 -83 -66 -83 -122 0 -37 6 -53 31 -81 68 -79 189
-50 220 52 9 32 8 44 -8 77 -31 65 -93 94 -160 74z"/>
<path d="M1080 7434 c-65 -23 -100 -69 -100 -131 0 -31 8 -49 34 -79 32 -37
36 -39 94 -39 46 1 66 5 82 20 24 22 50 77 50 106 0 28 -29 82 -54 101 -25 18
-82 30 -106 22z"/>
<path d="M1500 7431 c-90 -22 -126 -117 -75 -193 72 -106 235 -54 235 74 0 37
-29 92 -57 106 -27 14 -75 21 -103 13z"/>
<path d="M2058 7433 c-15 -2 -41 -20 -58 -39 -25 -29 -30 -43 -30 -87 0 -48 4
-57 36 -88 l35 -34 2697 -3 c1483 -2 2716 0 2740 3 35 5 48 13 72 47 48 66 35
139 -31 186 -22 16 -203 17 -2729 18 -1488 1 -2717 -1 -2732 -3z"/>
<path d="M7978 7433 c-16 -2 -42 -22 -63 -45 -43 -52 -47 -96 -10 -150 36 -53
69 -60 273 -56 l174 3 34 37 c29 32 34 45 34 86 0 41 -5 55 -34 88 l-34 39
-173 1 c-96 1 -186 0 -201 -3z"/>
<path d="M5115 6020 c-105 -17 -208 -87 -271 -185 -29 -46 -54 -116 -54 -153
0 -65 -6 -68 -141 -76 -109 -6 -130 -10 -188 -38 -73 -35 -166 -121 -192 -178
-52 -114 -49 -66 -49 -709 0 -498 -2 -600 -14 -610 -9 -8 -57 -11 -147 -9
l-134 3 -6 255 c-6 256 -8 273 -48 359 -22 47 -127 152 -178 179 -104 53 -103
53 -1353 49 -1264 -4 -1188 0 -1301 -64 -86 -48 -140 -119 -190 -243 -11 -28
-14 -154 -17 -640 -3 -537 -1 -613 13 -675 33 -138 111 -237 232 -297 l68 -33
1230 0 1230 0 70 34 c75 37 160 113 189 171 47 92 56 153 56 390 0 163 3 229
12 238 15 15 241 17 269 2 18 -10 19 -28 19 -608 0 -663 -2 -641 68 -750 83
-128 217 -192 403 -192 96 0 99 -2 99 -70 0 -83 86 -219 175 -275 118 -76 -12
-69 1470 -73 1234 -3 1335 -2 1395 14 63 17 121 45 148 71 7 7 21 18 30 25 10
7 31 31 47 53 76 101 86 143 92 358 7 255 -19 354 -124 463 -51 53 -84 73
-173 105 -53 18 -95 19 -1388 19 -1490 0 -1376 5 -1492 -70 -99 -65 -180 -191
-180 -279 0 -64 -11 -71 -106 -71 -100 0 -148 19 -179 72 -19 32 -20 54 -23
598 -2 381 0 575 8 594 l10 28 134 -4 c74 -2 137 -6 141 -10 4 -4 10 -33 14
-65 22 -176 174 -322 361 -345 42 -5 638 -7 1375 -6 1222 3 1302 4 1340 21
135 60 223 152 262 276 26 82 26 430 0 512 -44 141 -154 247 -292 285 -69 19
-2654 21 -2737 2 -72 -16 -158 -68 -208 -126 -52 -60 -100 -159 -100 -207 0
-73 -4 -75 -154 -75 -103 0 -136 3 -145 14 -9 11 -11 161 -9 593 3 554 4 579
22 604 41 53 65 63 163 67 111 5 123 -1 123 -64 0 -79 100 -247 164 -275 12
-5 37 -19 56 -31 77 -47 84 -47 1452 -48 864 0 1304 3 1340 11 108 21 194 73
251 151 79 108 88 144 94 368 4 161 2 194 -15 258 -37 137 -114 230 -242 291
l-55 26 -1335 1 c-734 1 -1357 -2 -1385 -6z m2655 -264 c30 -9 54 -25 75 -50
l30 -38 3 -181 c2 -173 1 -184 -20 -221 -13 -22 -39 -49 -58 -60 -35 -21 -36
-21 -1330 -21 -1230 0 -1298 1 -1335 18 -77 35 -80 45 -80 274 l0 202 34 35
c18 19 50 39 70 44 22 6 523 10 1301 11 1029 1 1273 -2 1310 -13z m-4201
-1136 c22 -11 48 -35 60 -53 21 -34 21 -42 21 -646 l0 -611 -35 -39 c-24 -26
-49 -42 -80 -50 -31 -8 -372 -11 -1162 -11 -1239 0 -1183 -3 -1238 64 l-30 38
-3 605 c-2 595 -2 605 18 641 12 20 38 47 58 59 l37 22 1158 1 c1132 0 1159 0
1196 -20z m4217 -419 c23 -10 52 -34 65 -52 23 -32 24 -43 27 -208 4 -196 -4
-229 -62 -272 l-31 -24 -1327 0 -1328 0 -37 38 -38 37 -5 163 c-5 175 2 238
31 276 19 24 53 45 86 54 10 3 594 5 1298 6 1228 1 1282 0 1321 -18z m29
-1565 c57 -44 65 -75 65 -260 0 -189 -10 -226 -73 -265 l-34 -21 -1307 0
c-1419 0 -1332 -3 -1386 55 -25 27 -25 27 -25 228 0 186 2 204 20 229 47 62
-57 57 1389 58 l1319 0 32 -24z"/>
</g>
</svg>
