<?xml version="1.0" standalone="no"?>
<!DOCTYPE svg PUBLIC "-//W3C//DTD SVG 20010904//EN"
 "http://www.w3.org/TR/2001/REC-SVG-20010904/DTD/svg10.dtd">
<svg version="1.0" xmlns="http://www.w3.org/2000/svg"
 width="900.000000pt" height="900.000000pt" viewBox="0 0 900.000000 900.000000"
 preserveAspectRatio="xMidYMid meet">
<metadata>
Created by potrace 1.10, written by Peter Selinger 2001-2011
</metadata>
<g transform="translate(0.000000,900.000000) scale(0.100000,-0.100000)"
fill="#ffffff" stroke="none">
<path d="M1945 7015 c-48 -12 -84 -27 -149 -62 -17 -9 -57 -44 -90 -78 -60
-60 -103 -134 -143 -240 -17 -48 -18 -134 -18 -2145 0 -2011 1 -2097 18 -2145
40 -106 83 -180 143 -240 33 -34 73 -69 90 -78 133 -70 215 -87 331 -68 194
32 352 184 420 404 15 46 17 149 20 847 3 609 7 796 16 802 19 12 3705 10
3728 -2 19 -10 19 -30 19 -769 0 -857 0 -854 71 -998 41 -82 130 -184 190
-218 66 -37 115 -55 182 -66 112 -19 210 1 327 66 13 8 52 42 87 76 76 75 139
195 159 302 21 107 21 4067 0 4174 -20 108 -85 230 -160 304 -34 33 -73 66
-87 74 -175 98 -333 98 -508 0 -60 -34 -149 -136 -190 -218 -71 -144 -71 -141
-71 -998 0 -739 0 -759 -19 -769 -23 -12 -3709 -14 -3728 -2 -9 6 -13 193 -16
802 -4 877 0 826 -69 967 -40 82 -148 195 -227 237 -97 52 -224 68 -326 41z"/>
<path d="M775 6235 c-101 -24 -199 -107 -252 -214 l-28 -56 0 -1475 0 -1475
28 -56 c75 -149 206 -229 377 -229 224 0 387 137 411 345 10 90 10 2726 0
2825 -18 166 -126 294 -285 335 -67 18 -181 18 -251 0z"/>
<path d="M7895 6235 c-108 -28 -194 -98 -246 -202 l-34 -68 0 -1475 0 -1475
34 -68 c71 -141 200 -217 371 -217 130 0 215 34 301 120 65 64 93 121 108 219
15 98 15 2744 0 2844 -19 123 -100 240 -202 292 -85 44 -228 57 -332 30z"/>
<path d="M101 5254 c-40 -17 -72 -48 -89 -87 -17 -40 -17 -1314 0 -1354 30
-68 106 -112 163 -93 38 12 73 42 101 85 18 29 19 54 19 685 0 632 -1 656 -19
685 -29 44 -52 64 -91 81 -41 17 -41 17 -84 -2z"/>
<path d="M8793 5255 c-35 -15 -59 -36 -88 -80 -19 -29 -20 -47 -20 -685 0
-638 1 -656 20 -685 52 -77 111 -105 171 -80 43 18 78 51 88 83 4 12 14 22 22
22 12 0 14 94 14 660 0 566 -2 660 -14 660 -8 0 -18 10 -22 23 -10 31 -45 64
-87 82 -43 18 -43 18 -84 0z"/>
</g>
</svg>
