<?xml version="1.0" standalone="no"?>
<!DOCTYPE svg PUBLIC "-//W3C//DTD SVG 20010904//EN"
 "http://www.w3.org/TR/2001/REC-SVG-20010904/DTD/svg10.dtd">
<svg version="1.0" xmlns="http://www.w3.org/2000/svg"
 width="980.000000pt" height="982.000000pt" viewBox="0 0 980.000000 982.000000"
 preserveAspectRatio="xMidYMid meet">
<g transform="translate(0.000000,982.000000) scale(0.100000,-0.100000)"
fill="#ffffff" stroke="none">
<path d="M4545 9800 c-758 -35 -1554 -251 -2125 -578 -244 -140 -391 -253
-600 -462 -532 -532 -764 -1019 -880 -1856 -79 -568 -139 -852 -255 -1210
-120 -376 -246 -612 -451 -849 -148 -171 -218 -294 -231 -406 -18 -155 113
-315 290 -353 39 -9 145 -23 234 -31 89 -7 171 -19 181 -24 22 -12 22 -11 -28
-230 -52 -229 -56 -341 -15 -423 10 -18 50 -67 91 -109 l73 -76 -20 -62 c-12
-41 -19 -91 -19 -144 0 -94 17 -140 81 -225 65 -86 69 -104 90 -380 20 -275
33 -340 84 -441 114 -228 345 -398 618 -457 104 -23 342 -20 552 5 220 27 338
27 411 1 117 -41 136 -59 407 -383 197 -236 243 -386 269 -864 l12 -233 1841
1 c1754 0 2265 6 2282 23 4 4 -3 67 -16 139 -60 347 -72 424 -91 587 -34 305
-43 476 -44 800 0 333 9 467 50 745 92 620 211 941 629 1685 257 458 307 557
395 775 78 195 160 468 160 531 0 2 -534 4 -1187 4 -654 0 -1254 5 -1334 9
-112 7 -163 15 -221 35 -234 78 -397 257 -465 508 -16 58 -17 190 -20 1633 -2
878 0 1704 6 1875 8 275 11 311 31 363 12 32 20 60 18 62 -1 2 -75 8 -162 14
-172 12 -388 12 -641 1z"/>
<path d="M5973 9800 c-95 -8 -146 -33 -210 -103 -77 -84 -71 0 -74 -927 l-4
-835 339 2 c193 1 343 6 349 12 5 5 4 18 -4 32 -18 34 -15 146 5 206 24 71 83
136 161 174 60 29 70 31 147 27 99 -5 145 -26 205 -90 61 -67 86 -144 80 -243
-3 -44 -8 -90 -12 -102 l-7 -23 306 0 306 0 0 940 0 940 -752 -1 c-414 -1
-790 -5 -835 -9z"/>
<path d="M7920 9563 c0 -136 3 -292 7 -346 l6 -99 26 7 c66 17 150 17 206 0
76 -22 173 -114 198 -189 27 -79 22 -170 -12 -241 -63 -134 -206 -194 -384
-161 l-47 8 2 -303 3 -304 938 -3 938 -2 -4 812 c-2 608 -6 822 -16 850 -25
78 -121 174 -199 200 -28 9 -240 13 -849 15 l-813 4 0 -248z"/>
<path d="M5683 7283 c4 -157 7 -535 7 -838 l0 -552 58 -69 c67 -81 103 -101
203 -114 41 -5 419 -13 842 -16 l767 -7 0 320 c0 347 -3 388 -29 378 -72 -28
-190 -21 -260 15 -47 24 -113 94 -142 150 -19 36 -24 61 -24 125 1 101 28 168
92 225 68 59 140 83 238 77 44 -2 90 -8 103 -12 l22 -7 0 306 0 306 -942 0
-941 0 6 -287z"/>
<path d="M7920 6636 c0 -514 3 -937 8 -939 4 -2 381 -2 839 1 l831 5 48 36
c60 45 118 121 135 175 9 31 13 244 16 849 l4 807 -323 0 c-178 0 -333 -3
-346 -6 -21 -6 -23 -10 -15 -48 16 -79 9 -177 -15 -224 -35 -66 -88 -119 -150
-149 -74 -36 -181 -39 -254 -6 -142 64 -217 226 -175 381 l14 52 -308 0 -309
0 0 -934z"/>
</g>
</svg>
