<?xml version="1.0" standalone="no"?>
<!DOCTYPE svg PUBLIC "-//W3C//DTD SVG 20010904//EN"
 "http://www.w3.org/TR/2001/REC-SVG-20010904/DTD/svg10.dtd">
<svg version="1.0" xmlns="http://www.w3.org/2000/svg"
 width="798.000000pt" height="980.000000pt" viewBox="0 0 798.000000 980.000000"
 preserveAspectRatio="xMidYMid meet">
<g transform="translate(0.000000,980.000000) scale(0.100000,-0.100000)"
fill="#ffffff" stroke="none">
<path d="M3897 9786 c-94 -35 -169 -113 -204 -211 -16 -45 -18 -94 -18 -480 0
-469 1 -477 58 -562 66 -99 189 -146 320 -123 109 20 176 73 226 180 l26 55 0
450 0 450 -33 67 c-36 74 -91 129 -162 161 -57 26 -162 32 -213 13z"/>
<path d="M6145 9026 c-39 -16 -74 -40 -98 -68 -97 -107 -466 -623 -514 -718
-57 -111 -23 -272 77 -369 51 -50 116 -71 215 -71 109 0 156 21 217 94 143
171 460 624 504 721 106 232 -165 509 -401 411z"/>
<path d="M1603 9016 c-137 -64 -221 -234 -183 -370 19 -70 355 -557 518 -752
39 -48 62 -65 98 -78 60 -20 175 -21 241 -1 128 38 223 216 193 361 -13 63
-129 243 -331 514 -242 325 -271 350 -409 350 -58 0 -87 -6 -127 -24z"/>
<path d="M3635 7845 c-263 -38 -572 -154 -828 -313 -285 -176 -548 -433 -730
-712 -415 -639 -496 -1453 -216 -2171 82 -212 191 -392 459 -759 154 -211 422
-613 534 -800 l86 -146 0 -382 0 -382 1050 0 1050 0 0 384 0 384 116 189 c144
233 398 610 574 853 163 224 233 335 309 488 94 187 170 411 206 602 40 215
40 710 0 899 -101 479 -359 947 -697 1266 -328 308 -716 506 -1163 592 -115
22 -613 27 -750 8z"/>
<path d="M220 7057 c-108 -42 -200 -165 -208 -278 -7 -94 51 -231 117 -278 40
-29 200 -90 441 -169 306 -100 444 -136 498 -128 183 25 312 212 268 387 -28
107 -88 174 -202 225 -148 66 -772 264 -827 263 -18 0 -57 -10 -87 -22z"/>
<path d="M7445 7023 c-402 -123 -662 -226 -727 -290 -95 -93 -110 -261 -34
-381 53 -85 161 -152 244 -152 90 0 728 201 882 278 96 48 169 189 157 305
-15 151 -168 299 -305 296 -20 0 -118 -25 -217 -56z"/>
<path d="M910 4849 c-201 -58 -486 -151 -610 -200 -155 -61 -214 -104 -255
-184 -57 -112 -35 -266 53 -366 37 -43 113 -85 169 -94 25 -4 76 0 130 10 92
17 457 134 678 216 117 44 135 54 177 99 88 94 117 236 70 343 -30 66 -112
150 -172 176 -80 34 -123 34 -240 0z"/>
<path d="M6846 4855 c-74 -30 -148 -101 -183 -175 -53 -111 -27 -252 65 -350
42 -45 60 -55 177 -99 226 -84 622 -211 698 -223 62 -9 81 -8 131 6 149 44
232 155 230 311 -1 135 -57 222 -180 280 -135 64 -791 275 -853 275 -14 0 -53
-11 -85 -25z"/>
<path d="M2073 3271 c-71 -24 -111 -57 -189 -155 -134 -168 -404 -557 -454
-654 -48 -91 -10 -252 80 -342 63 -63 118 -84 220 -85 123 0 154 18 257 147
192 242 420 566 460 655 22 46 27 72 27 130 -1 95 -33 162 -115 237 -90 83
-179 104 -286 67z"/>
<path d="M5738 3276 c-135 -36 -227 -165 -227 -321 -1 -107 25 -154 272 -495
213 -293 275 -366 337 -397 47 -24 67 -28 135 -28 98 1 154 23 220 90 58 58
87 121 93 207 4 59 1 74 -25 130 -34 71 -169 275 -317 478 -190 260 -236 307
-332 336 -57 17 -93 17 -156 0z"/>
<path d="M3096 1789 c-68 -10 -113 -40 -154 -101 -38 -58 -44 -164 -12 -231
25 -54 78 -102 130 -119 25 -9 284 -13 938 -15 l903 -4 34 21 c79 49 145 157
145 239 0 39 -35 101 -93 164 l-53 57 -890 -1 c-489 -1 -915 -5 -948 -10z"/>
<path d="M3035 893 c16 -150 62 -239 179 -351 76 -72 140 -108 241 -137 33
-10 66 -22 74 -29 8 -6 32 -48 53 -94 68 -140 164 -224 307 -266 195 -57 408
54 509 266 22 46 46 89 53 94 8 6 54 24 102 39 133 42 228 119 317 257 49 75
71 141 73 220 l2 63 -959 3 -958 2 7 -67z"/>
</g>
</svg>
