<?xml version="1.0" standalone="no"?>
<!DOCTYPE svg PUBLIC "-//W3C//DTD SVG 20010904//EN"
 "http://www.w3.org/TR/2001/REC-SVG-20010904/DTD/svg10.dtd">
<svg version="1.0" xmlns="http://www.w3.org/2000/svg"
 width="980.000000pt" height="470.000000pt" viewBox="0 0 980.000000 470.000000"
 preserveAspectRatio="xMidYMid meet">
<g transform="translate(0.000000,470.000000) scale(0.100000,-0.100000)"
fill="#ffffff" stroke="none">
<path d="M1738 4690 c-317 -54 -570 -286 -649 -597 -18 -72 -20 -106 -17 -281
l3 -200 -52 -5 c-93 -10 -123 -46 -123 -150 0 -143 44 -299 100 -358 31 -32
44 -39 76 -39 l39 0 24 -67 c62 -175 177 -352 301 -466 81 -73 148 -115 262
-164 115 -50 194 -55 303 -19 137 46 218 99 340 221 126 127 191 226 256 395
l41 105 41 1 c34 0 46 6 77 42 83 93 131 389 74 453 -25 28 -75 49 -117 49
l-34 0 5 183 c7 267 -21 383 -134 553 -114 173 -292 292 -498 335 -94 19 -232
23 -318 9z"/>
<path d="M4700 4671 c-191 -41 -324 -115 -465 -256 -115 -115 -175 -212 -228
-365 l-32 -95 0 -258 0 -257 -43 0 c-88 0 -146 -46 -158 -125 -8 -54 10 -194
37 -297 36 -133 103 -212 178 -206 33 3 33 2 62 -76 117 -320 312 -557 569
-690 218 -112 342 -112 560 0 255 132 437 352 565 684 32 82 34 85 63 82 62
-7 122 47 160 143 29 74 54 209 56 300 2 127 -34 172 -142 182 l-58 5 0 247
c1 269 -4 300 -65 445 -62 146 -192 305 -323 395 -71 49 -203 109 -291 132
-116 30 -330 35 -445 10z"/>
<path d="M8015 4640 c-364 -57 -681 -286 -845 -610 -88 -175 -123 -325 -122
-525 0 -145 16 -242 63 -375 68 -192 83 -253 83 -335 1 -79 1 -81 -51 -165
l-52 -85 47 -43 c100 -91 274 -155 547 -200 88 -14 162 -27 164 -29 2 -1 -17
-63 -43 -137 -25 -73 -46 -151 -46 -173 0 -103 78 -307 158 -415 42 -57 146
-159 200 -197 l33 -23 38 25 c73 48 162 140 219 226 65 97 103 190 128 313
l17 83 -49 147 c-26 81 -46 149 -44 152 3 2 59 12 124 21 132 19 312 62 397
94 57 22 148 77 204 124 l30 26 -28 48 c-15 26 -42 76 -59 111 -30 63 -30 65
-19 135 6 40 37 145 67 234 67 196 83 281 84 439 0 201 -42 377 -132 544 -118
222 -331 417 -557 511 -170 71 -398 103 -556 79z"/>
<path d="M1080 2096 c-107 -41 -287 -112 -400 -159 -356 -147 -388 -164 -435
-236 -22 -33 -123 -335 -205 -616 -57 -195 -39 -300 71 -399 90 -81 3 -76
1268 -76 l1126 0 41 138 c55 184 152 497 170 548 23 65 72 132 155 214 88 87
130 111 364 209 93 40 171 73 173 75 10 10 -542 237 -806 332 l-124 44 -6 -22
c-8 -35 -309 -926 -331 -983 -17 -44 -20 -47 -24 -25 -3 14 -12 184 -21 379
l-15 353 70 140 c39 77 67 138 62 136 -4 -2 -30 -15 -58 -29 -176 -93 -429
-86 -580 17 -20 13 -35 21 -33 17 1 -5 34 -70 72 -145 l69 -137 -18 -378 c-9
-208 -18 -379 -20 -381 -4 -5 -149 414 -256 740 -57 175 -106 317 -109 317 -3
0 -93 -33 -200 -73z"/>
<path d="M7192 1945 c-305 -105 -370 -136 -455 -214 l-58 -54 88 -46 c101 -52
190 -135 265 -247 39 -58 59 -106 122 -304 41 -129 90 -287 109 -350 l35 -115
1109 0 1108 0 57 27 c32 15 80 48 109 75 100 94 126 189 115 428 -12 281 -62
423 -195 555 -42 41 -103 91 -136 110 -35 21 -176 74 -347 132 l-288 97 0 -25
c0 -18 19 -45 64 -89 114 -114 164 -247 153 -405 -10 -140 -9 -139 -79 -76
-79 72 -124 103 -195 132 -68 28 -53 39 -145 -106 -145 -228 -424 -560 -470
-560 -66 0 -376 374 -532 642 l-27 47 -46 -14 c-58 -18 -142 -73 -215 -142
-31 -30 -59 -50 -62 -45 -12 20 -23 171 -16 224 17 124 76 238 163 314 30 27
49 53 53 73 4 17 3 31 -2 30 -5 0 -132 -42 -282 -94z"/>
<path d="M3965 1706 c-250 -95 -651 -259 -770 -315 -62 -29 -93 -52 -141 -103
l-61 -65 -66 -204 c-157 -486 -182 -577 -181 -669 0 -71 5 -94 28 -142 48
-100 139 -172 248 -198 28 -6 704 -10 1878 -10 2027 0 1904 -4 2002 63 26 17
63 52 82 77 88 116 93 207 22 443 -114 381 -196 619 -230 666 -54 73 -96 108
-171 141 -233 105 -911 374 -995 395 -25 6 -26 4 -178 -452 -84 -252 -177
-525 -206 -608 l-54 -150 -6 55 c-3 30 -13 226 -22 436 l-17 381 82 161 c44
88 81 164 81 167 0 4 -13 -3 -30 -15 -120 -85 -340 -122 -514 -85 -71 15 -187
64 -218 92 -10 9 -18 13 -18 9 0 -3 36 -78 80 -167 l81 -160 -21 -432 c-12
-237 -22 -433 -24 -435 -5 -5 -92 245 -258 745 -111 336 -157 462 -168 462 -8
0 -114 -37 -235 -83z"/>
</g>
</svg>
