<?xml version="1.0" standalone="no"?>
<!DOCTYPE svg PUBLIC "-//W3C//DTD SVG 20010904//EN"
 "http://www.w3.org/TR/2001/REC-SVG-20010904/DTD/svg10.dtd">
<svg version="1.0" xmlns="http://www.w3.org/2000/svg"
 width="980.000000pt" height="896.000000pt" viewBox="0 0 980.000000 896.000000"
 preserveAspectRatio="xMidYMid meet">
<g transform="translate(0.000000,896.000000) scale(0.100000,-0.100000)"
fill="#ffffff" stroke="none">
<path d="M1198 8934 c-20 -15 -49 -44 -64 -65 -53 -77 -24 -128 205 -364 86
-88 178 -184 205 -213 l51 -52 -131 -133 c-360 -365 -385 -403 -335 -497 23
-45 71 -77 126 -86 77 -11 116 17 363 260 l223 220 222 -222 c247 -245 282
-270 363 -257 62 9 99 44 114 106 22 91 8 113 -248 371 l-225 228 219 222
c243 247 271 286 260 363 -9 55 -41 103 -86 126 -94 50 -132 25 -497 -335
l-133 -130 -37 34 c-21 19 -119 114 -219 211 -179 175 -263 239 -314 239 -14
0 -42 -12 -62 -26z"/>
<path d="M8295 8104 c-165 -30 -343 -104 -492 -205 -100 -69 -275 -243 -337
-338 -100 -150 -167 -313 -202 -484 -13 -65 -16 -114 -11 -237 16 -404 104
-623 354 -881 184 -190 382 -302 633 -360 123 -29 376 -36 496 -15 301 52 555
203 761 450 243 291 341 631 287 993 -43 292 -162 523 -374 727 -195 187 -428
305 -689 350 -115 20 -316 20 -426 0z m477 -348 c66 -18 197 -81 278 -135 143
-94 289 -274 349 -430 49 -127 64 -225 58 -375 -7 -190 -61 -362 -157 -501
-85 -124 -225 -244 -366 -314 -159 -79 -284 -106 -455 -98 -305 14 -574 167
-746 424 -115 173 -159 334 -150 552 10 255 95 450 276 632 123 123 290 218
449 254 87 19 379 14 464 -9z"/>
<path d="M6195 7538 c-36 -28 -65 -92 -65 -145 0 -50 33 -96 189 -258 l106
-110 -110 -7 c-61 -4 -1012 -12 -2115 -17 -1290 -7 -2028 -14 -2068 -21 -90
-14 -201 -54 -316 -113 -532 -271 -807 -865 -665 -1435 39 -155 129 -353 211
-459 22 -29 86 -97 142 -151 167 -160 287 -236 466 -296 129 -42 241 -61 480
-81 370 -31 603 -91 866 -223 580 -292 1012 -887 1109 -1527 24 -163 31 -149
-82 -175 -357 -81 -701 -349 -865 -674 -48 -95 -101 -252 -119 -356 -17 -96
-17 -334 0 -430 29 -164 111 -367 200 -498 181 -268 476 -473 765 -533 122
-26 353 -35 485 -20 131 16 208 39 346 106 275 133 500 360 629 636 57 123 81
203 96 324 17 128 7 369 -19 490 -71 336 -294 630 -615 814 -101 57 -203 98
-356 143 -58 17 -106 31 -107 32 -1 1 -13 75 -28 166 -47 292 -93 441 -210
685 -205 424 -465 725 -845 977 -373 247 -684 347 -1240 398 -124 12 -263 30
-309 41 -249 58 -491 260 -620 518 -60 117 -74 195 -74 386 0 197 14 268 83
407 115 229 281 385 519 486 l106 46 2130 4 2130 4 -25 -28 c-14 -16 -72 -78
-129 -138 -123 -130 -157 -189 -140 -251 31 -110 131 -155 232 -104 51 26 551
520 604 596 28 41 36 63 36 96 0 56 -17 86 -105 187 -92 105 -465 465 -520
503 -54 36 -141 39 -183 5z m-1490 -5338 c162 -9 208 -21 330 -83 248 -124
429 -354 501 -632 23 -91 25 -113 21 -245 -4 -123 -8 -158 -32 -230 -54 -166
-133 -296 -252 -411 -185 -180 -393 -269 -633 -269 -380 0 -723 213 -876 544
-61 134 -79 222 -79 396 0 130 4 169 23 240 82 303 312 553 598 652 74 26 116
34 239 46 6 1 78 -3 160 -8z"/>
<path d="M4545 5870 c-48 -24 -73 -61 -81 -123 -11 -79 17 -118 252 -357 l212
-215 -215 -223 c-252 -263 -269 -289 -242 -386 14 -52 55 -92 109 -106 81 -22
108 -4 361 247 l226 224 211 -205 c220 -213 276 -259 329 -270 71 -16 149 32
182 113 30 71 -9 127 -292 417 -97 100 -177 185 -177 189 0 5 96 105 213 224
289 294 308 333 214 437 -38 41 -48 47 -93 51 -39 4 -60 0 -92 -16 -23 -12
-143 -119 -268 -239 l-227 -218 -206 205 c-113 114 -228 221 -255 239 -58 38
-102 41 -161 12z"/>
<path d="M73 4190 c-42 -25 -62 -57 -69 -113 -10 -70 23 -115 262 -357 l213
-215 -208 -210 c-222 -223 -271 -286 -271 -344 1 -88 65 -161 149 -169 42 -4
51 0 106 41 33 25 151 134 263 242 l203 198 192 -190 c251 -247 310 -293 372
-293 62 0 138 71 150 140 13 74 -21 121 -260 367 l-215 221 208 209 c114 115
221 229 237 253 53 77 32 180 -45 221 -44 24 -120 25 -168 2 -21 -10 -135
-114 -254 -232 l-218 -214 -206 202 c-113 112 -227 216 -252 232 -57 36 -138
40 -189 9z"/>
</g>
</svg>
